<?xml version="1.0" encoding="UTF-8"?>
<!--
  Comfort Indoor Solutions horizontal lockup for light surfaces.
  Same geometry as cis-hero-white.svg with brand-exact colors from
  CIS LOGO AFFC.svg: indigo #30439B letters/wordmark, silver #D2D2D0
  arrows, near-black FirstCall line.
-->
<svg xmlns="http://www.w3.org/2000/svg" viewBox="0 0 790 120" role="img" aria-label="Comfort Indoor Solutions, Inc. — A FirstCall Company">
  <g transform="scale(0.2303) translate(-130,-31)">
    <g fill="#d2d2d0">
      <path d="M221.96,376.43c-8.4-21.11-13.07-44.11-13.07-68.22,0-86.11,58.94-158.45,138.67-178.88l-.14,44.39,113.96-67.57-63.32-41.81h0l-50.19-33.13-.12,37.39c-112.82,21.43-198.13,120.55-198.13,239.61,0,46.88,13.23,90.65,36.15,127.82l-7.37-75.76,43.55,16.15Z"/>
      <path d="M507.72,453.28c-31.43,24.77-71.06,39.59-114.18,39.59s-79.33-13.54-110.07-36.4l34.55-27.79-124.22-46.06,13.17,135.38,29.18-23.47c42.48,35.93,97.4,57.6,157.39,57.6,72.1,0,136.89-31.29,181.54-81.02l-70.47,28.57,3.11-46.4Z"/>
      <path d="M647.7,427.45l-30.76-21.28c13.17-29.99,20.52-63.11,20.52-97.96,0-124.08-92.65-226.53-212.55-241.92l63.52,41.94-39.9,23.66c75.12,23.41,129.66,93.5,129.66,176.32,0,22.28-3.95,43.64-11.18,63.42l-36.51-25.26-6.18,92.19h0l-2.68,40,70.37-28.53h0s55.69-22.58,55.69-22.58Z"/>
    </g>
    <g fill="#30439b">
      <path d="M241.93,216.76c-20.34,0-35.05,6.58-44.12,19.73-8.93,13.27-13.39,34.99-13.39,65.17,0,25.76,4.31,44.11,12.95,55.05,8.49,10.84,23.34,16.25,44.56,16.25h81.44v41.79h-83.63c-18.88,0-33.44-1.6-43.68-4.81-10.1-3.21-19.98-8.62-29.63-16.25-11.71-9.51-20.56-22.33-26.56-38.47-6.29-15.81-9.44-34.38-9.44-55.72,0-42.01,9-73.24,27-93.69,18-20.12,45.88-30.18,83.63-30.18h82.32v41.13h-81.44Z"/>
      <path d="M411.39,414.76h-51.81v-239.12h51.81v239.12Z"/>
      <path d="M658.79,218.58h-122.27c-13.47,0-23.05,2.43-28.76,7.3-6,4.53-9,12.44-9,23.71,0,8.4,2.56,14.87,7.68,19.4,5.71,4.31,13.46,6.47,23.27,6.47h65.2c27.36,0,46.68,5.2,57.95,15.59,11.41,10.72,17.12,28.19,17.12,52.4s-6.59,42.07-19.76,53.56c-13.17,11.83-34.02,17.74-62.56,17.74h-131.27v-42.45h123.59c14.05,0,24.07-2.16,30.07-6.47,5.71-4.09,8.56-11,8.56-20.73s-2.63-16.64-7.9-21.39c-5.42-4.09-14.42-6.14-27-6.14h-58.39c-26.64,0-46.61-5.42-59.93-16.25-12.29-11.39-18.44-28.85-18.44-52.4,0-24.87,6.51-43.45,19.54-55.72,6.88-5.86,15.37-10.22,25.46-13.1,10.24-2.98,22.68-4.48,37.32-4.48h129.51v42.95Z"/>
    </g>
  </g>

  <text x="150" y="50" font-family="Manrope, 'Segoe UI', system-ui, sans-serif" font-size="36" font-weight="800" fill="#30439b" textLength="620" lengthAdjust="spacingAndGlyphs">COMFORT INDOOR SOLUTIONS</text>
  <text x="150" y="93" font-family="Manrope, 'Segoe UI', system-ui, sans-serif" font-size="20" font-weight="600" fill="#25282a" textLength="620" lengthAdjust="spacing">A FIRSTCALL COMPANY</text>
</svg>
