<?xml version="1.0" encoding="UTF-8"?>
<svg xmlns="http://www.w3.org/2000/svg" version="1.1" viewBox="88.7 62.1 347 168.4">
  <defs>
    <style>
      .cls-1 {
        fill: #25282a;
      }

      .cls-2 {
        fill: #f26522;
      }

      .cls-3 {
        fill: #2690c0;
      }
    </style>
  </defs>
  <!-- Generator: Adobe Illustrator 28.7.1, SVG Export Plug-In . SVG Version: 1.2.0 Build 142)  -->
  <g>
    <g id="Layer_1">
      <path class="cls-3" d="M260.8,83.2l5.1-15.1h-42.5c-5.1,0-10.6,4.1-12.3,9.2l-17,49.8c-1.7,5.1,1,9.2,6.1,9.2h42.5l5.1-15.1h-29.7c-2.2,0-3.3-1.7-2.6-3.9l10.3-30.3c.7-2.1,3.1-3.9,5.2-3.9h29.7Z"/>
      <path class="cls-2" d="M272.1,68.1l-5.1,15.1h39.8c1.9,0,2.8,1.5,2.2,3.3l-2.3,6.7c-.6,1.9-2.6,3.3-4.5,3.3h-30.8c-5,0-10.4,4.1-12.2,9.1l-7.4,21.6c-1.7,5,1,9.1,6,9.1h43.1c5,0,10.4-4.1,12.1-9l17.1-50.2c1.7-5-1-9-6-9h-52.2ZM273.2,117.9l1-2.9c.6-1.8,2.6-3.3,4.5-3.3h18.4c1.8,0,2.8,1.5,2.2,3.3l-1,2.9c-.6,1.8-2.6,3.3-4.5,3.3h-18.4c-1.8,0-2.8-1.5-2.2-3.3Z"/>
      <path class="cls-3" d="M121.7,174.7c-1.4-1.6-3.2-2.4-5.4-2.4s-1.9.2-2.8.5-1.6.7-2.2,1.3c-.6.5-1.2,1.2-1.6,1.9s-.6,1.5-.7,2.4c0,.9,0,1.7.3,2.4s.7,1.4,1.3,1.9c.6.5,1.3,1,2.1,1.3.8.3,1.7.5,2.6.5,2.1,0,4-.8,5.8-2.3l-.5,6.7-.7.2c-1,.3-2,.5-2.9.7-.9.1-1.7.2-2.6.2-1.7,0-3.4-.3-4.9-.8-1.6-.6-2.9-1.4-4-2.4s-2-2.3-2.6-3.7c-.6-1.4-.9-3-.8-4.7.1-1.7.6-3.2,1.4-4.6.8-1.4,1.9-2.6,3.2-3.6s2.8-1.8,4.4-2.4,3.3-.8,5.1-.8,2,0,2.9.3c1,.2,2,.5,3,.8l-.5,6.8h0Z"/>
      <path class="cls-3" d="M124.8,178.3c.1-1.6.6-3.1,1.4-4.5s1.8-2.6,3.1-3.7,2.8-1.9,4.6-2.4,3.6-.9,5.7-.9,3.9.3,5.5.9c1.7.6,3.1,1.4,4.2,2.4,1.2,1,2,2.3,2.6,3.7s.8,2.9.7,4.5c-.1,1.6-.6,3.1-1.4,4.5s-1.8,2.6-3.2,3.7-2.8,1.9-4.6,2.4-3.6.9-5.7.9-3.9-.3-5.5-.9c-1.7-.6-3.1-1.4-4.2-2.4-1.2-1-2-2.3-2.6-3.7-.6-1.4-.8-2.9-.7-4.5h0ZM131.6,178.3c0,.9,0,1.7.4,2.4s.8,1.4,1.4,1.9c.6.5,1.3,1,2.2,1.3.8.3,1.7.4,2.7.4s1.9-.2,2.8-.4c.9-.3,1.7-.7,2.4-1.3.7-.5,1.3-1.2,1.7-1.9.4-.7.7-1.5.7-2.4,0-.9,0-1.7-.4-2.4s-.8-1.4-1.4-1.9c-.6-.5-1.3-1-2.2-1.3-.8-.3-1.7-.4-2.7-.4s-1.9.2-2.8.4c-.9.3-1.7.7-2.3,1.3s-1.2,1.2-1.7,1.9c-.4.7-.7,1.5-.7,2.4Z"/>
      <path class="cls-3" d="M156,189.2l1.6-21.8h6.5l11.1,13.3,1-13.3h6.5l-1.6,21.8h-6.5l-11.1-13.3-1,13.3h-6.5Z"/>
      <path class="cls-3" d="M187.9,167.4h9.7c1.7,0,3.3.3,4.8.9,1.5.6,2.7,1.4,3.8,2.4,1.1,1,1.8,2.2,2.4,3.5.6,1.3.8,2.7.7,4.2,0,1.4-.5,2.8-1.2,4.1s-1.7,2.5-2.9,3.5c-1.2,1-2.6,1.8-4.1,2.4s-3.2.9-4.9.9h-9.7l1.6-21.8h0ZM193.2,184.4h1.5c1.1,0,2.2-.2,3.1-.5.9-.3,1.7-.7,2.3-1.3.7-.5,1.2-1.2,1.5-1.9s.6-1.6.7-2.4c0-.9,0-1.7-.3-2.4-.3-.8-.7-1.4-1.3-1.9s-1.3-1-2.2-1.3c-.9-.3-1.9-.5-3-.5h-1.5l-.9,12.2h0Z"/>
      <path class="cls-3" d="M220.6,167.4l-1.6,21.8h-6.5l1.6-21.8s6.5,0,6.5,0Z"/>
      <path class="cls-3" d="M235.1,172.2l-1.2,17h-6.5l1.2-17h-5.4l.4-4.8h17.3l-.4,4.8h-5.4,0Z"/>
      <path class="cls-3" d="M250.2,167.4l-1.6,21.8h-6.5l1.6-21.8s6.5,0,6.5,0Z"/>
      <path class="cls-3" d="M253.6,178.3c.1-1.6.6-3.1,1.4-4.5s1.8-2.6,3.1-3.7,2.8-1.9,4.6-2.4c1.7-.6,3.6-.9,5.7-.9s3.9.3,5.5.9,3.1,1.4,4.2,2.4c1.2,1,2,2.3,2.6,3.7s.8,2.9.7,4.5c-.1,1.6-.6,3.1-1.4,4.5s-1.8,2.6-3.1,3.7-2.8,1.9-4.6,2.4-3.6.9-5.7.9-3.9-.3-5.6-.9c-1.7-.6-3.1-1.4-4.2-2.4-1.1-1-2-2.3-2.6-3.7-.6-1.4-.8-2.9-.7-4.5h0ZM260.4,178.3c0,.9,0,1.7.4,2.4.3.7.8,1.4,1.4,1.9.6.5,1.3,1,2.2,1.3.8.3,1.7.4,2.7.4s1.9-.2,2.8-.4c.9-.3,1.7-.7,2.4-1.3.7-.5,1.3-1.2,1.7-1.9.4-.7.7-1.5.7-2.4,0-.9,0-1.7-.4-2.4-.3-.7-.8-1.4-1.4-1.9-.6-.5-1.3-1-2.2-1.3-.8-.3-1.7-.4-2.7-.4s-1.9.2-2.8.4c-.9.3-1.7.7-2.3,1.3s-1.2,1.2-1.7,1.9-.7,1.5-.7,2.4h0Z"/>
      <path class="cls-3" d="M284.7,189.2l1.6-21.8h6.5l11.1,13.3,1-13.3h6.5l-1.6,21.8h-6.5l-11.1-13.3-1,13.3h-6.5Z"/>
      <path class="cls-3" d="M330.6,172.2h-7.8l-.3,3.7h7.3l-.4,4.8h-7.3l-.3,3.8h7.8l-.4,4.8h-14.3l1.6-21.8h14.3l-.4,4.8h0Z"/>
      <path class="cls-3" d="M335.7,167.4h9.7c1.7,0,3.3.3,4.8.9,1.5.6,2.7,1.4,3.8,2.4,1,1,1.9,2.2,2.4,3.5.5,1.3.8,2.7.7,4.2-.1,1.4-.5,2.8-1.2,4.1s-1.7,2.5-2.9,3.5c-1.2,1-2.6,1.8-4.1,2.4-1.5.6-3.2.9-4.9.9h-9.7l1.6-21.8h0ZM341,184.4h1.5c1.1,0,2.1-.2,3.1-.5.9-.3,1.7-.7,2.3-1.3.6-.5,1.2-1.2,1.5-1.9.4-.7.6-1.6.7-2.4,0-.9,0-1.7-.3-2.4-.3-.8-.7-1.4-1.3-1.9-.6-.5-1.3-1-2.2-1.3-.9-.3-1.9-.5-3-.5h-1.5l-.9,12.2h0Z"/>
      <path class="cls-2" d="M378.5,185.4h-9.3l-1.8,3.8h-7l11.1-21.8h7.1l8,21.8h-7l-1.2-3.8h0ZM377.1,181.1l-2.4-7.3-3.5,7.3h5.9Z"/>
      <path class="cls-2" d="M397.6,167.4l-1.6,21.8h-6.5l1.6-21.8s6.5,0,6.5,0Z"/>
      <path class="cls-2" d="M422.2,189.2h-8.1l-5.6-8.4-.6,8.4h-6.5l1.6-21.8h10.2c1.4,0,2.6.2,3.6.5,1,.4,1.8.8,2.5,1.5.6.6,1.1,1.3,1.4,2.1s.4,1.7.3,2.6c-.1,1.7-.7,3-1.7,4s-2.4,1.7-4.2,2.1l7.2,8.9h0ZM408.7,177.1h1.2c1.3,0,2.3-.2,3-.7.7-.5,1.1-1.1,1.2-2,0-.9-.2-1.5-.9-2s-1.6-.7-2.9-.7h-1.2l-.4,5.4h0Z"/>
      <path class="cls-2" d="M428.2,155.2H96.2c-.8,0-1.5-.7-1.5-1.5s.6-1.5,1.5-1.5h332c.8,0,1.5.7,1.5,1.5s-.6,1.5-1.5,1.5Z"/>
      <path class="cls-2" d="M428.2,204.3H96.2c-.8,0-1.5-.6-1.5-1.5s.6-1.5,1.5-1.5h332c.8,0,1.5.6,1.5,1.5s-.6,1.5-1.5,1.5Z"/>
      <g>
        <g>
          <g>
            <path class="cls-1" d="M298.2,215.6v1.8h4.3v2.7h-4.3v3.3h-3.4v-10.4h8.3v2.7h-4.9Z"/>
            <path class="cls-1" d="M303.9,214.6h2.9v8.8h-2.9v-8.8Z"/>
            <path class="cls-1" d="M311.3,221.2h-.8v2.2h-2.9v-8.8h4.2c2.4,0,3.9,1.3,3.9,3.3s-.6,2.2-1.6,2.7l1.8,2.7h-3.1l-1.4-2.2h0ZM311.5,216.9h-1.1v2.1h1.1c.8,0,1.2-.4,1.2-1s-.4-1.1-1.2-1.1Z"/>
            <path class="cls-1" d="M316.1,222.7l.9-2.1c.8.5,1.9.8,2.8.8s1.1-.2,1.1-.5c0-1.1-4.7-.2-4.7-3.5s1.3-2.9,4-2.9,2.3.3,3.2.7l-.9,2.1c-.9-.5-1.6-.7-2.4-.7s-1.1.3-1.1.5c0,1.1,4.7.2,4.7,3.4s-1.3,2.9-4,2.9-2.9-.4-3.8-.9h0Z"/>
            <path class="cls-1" d="M326.6,217h-2.5v-2.3h7.9v2.3h-2.5v6.4h-2.9v-6.4h0Z"/>
          </g>
          <g>
            <path class="cls-1" d="M341.7,218.2l-.9-1.6,2-1.8c-1-1.3-2.6-2.1-4.6-2.1-3.3,0-5.7,2.3-5.7,5.4s2.4,5.4,5.7,5.4,3.6-.7,4.6-2.1l-2-1.8.9-1.5h0ZM336.6,220.8l-1.4-2.6,1.4-2.6h3l1.4,2.6-1.4,2.6h-3Z"/>
            <path class="cls-1" d="M349.2,221.9h-3.3l-.6,1.5h-2.9l3.8-8.8h2.8l3.8,8.8h-3l-.6-1.5h0ZM348.4,219.8l-.9-2.2-.9,2.2h1.7Z"/>
            <path class="cls-1" d="M353.2,214.6h2.9v6.4h3.8v2.3h-6.7v-8.8h0Z"/>
            <path class="cls-1" d="M360.4,214.6h2.9v6.4h3.8v2.3h-6.7v-8.8h0Z"/>
          </g>
        </g>
        <path class="cls-1" d="M285.6,214.6h1.3l3.1,8.8h-1.3l-.9-2.6h-3.4l-.9,2.6h-1.2l3.3-8.8h0ZM287.5,219.8l-1.3-3.9-1.4,3.9h2.7Z"/>
        <g>
          <path class="cls-1" d="M378,215.3c.6.6.9,1.3,1,2h-1.1c-.1-.5-.4-1-.7-1.3-.4-.3-.9-.5-1.6-.5s-1.5.3-2,.9c-.5.6-.7,1.5-.7,2.8s.3,1.9.7,2.5c.5.6,1.2,1,2.1,1s1.4-.3,1.9-1c.3-.3.4-.9.5-1.4h1.1c-.1.9-.5,1.7-1,2.3-.7.7-1.6,1.1-2.8,1.1s-1.8-.3-2.5-.9c-.9-.8-1.3-2.1-1.3-3.7s.3-2.3,1-3.1c.7-.9,1.7-1.3,3-1.3s1.9.3,2.6.9v-.3Z"/>
          <path class="cls-1" d="M387.7,215.9c.6.7.9,1.8.9,2.9s-.3,2.4-1,3.3c-.7,1-1.8,1.5-3.3,1.5s-2.4-.5-3.1-1.3c-.7-.9-1.1-1.9-1.1-3.3s.3-2.2.9-3c.7-1.1,1.8-1.7,3.3-1.7s2.7.5,3.4,1.5h0ZM386.7,221.5c.5-.7.7-1.6.7-2.6s-.3-1.9-.8-2.5c-.5-.6-1.3-.9-2.2-.9s-1.6.3-2.2.9-.9,1.5-.9,2.7.3,1.8.7,2.5,1.3,1,2.4,1,1.8-.4,2.2-1.2h0Z"/>
          <path class="cls-1" d="M390,214.6h1.7l2.5,7.4,2.5-7.4h1.6v8.8h-1.1v-7.4l-2.5,7.4h-1.2l-2.5-7.4v7.4h-1.1v-8.8h0Z"/>
          <path class="cls-1" d="M400.2,214.6h3.9c.7,0,1.4.2,1.8.7s.7,1.1.7,1.9-.2,1.3-.6,1.8-1.1.7-1.9.7h-2.7v3.7h-1.2v-8.7h0ZM404.7,215.9c-.3-.1-.6-.2-1.1-.2h-2.3v3h2.3c.5,0,1-.1,1.3-.3.3-.3.5-.6.5-1.2s-.3-1.1-.7-1.3h0Z"/>
          <path class="cls-1" d="M409.7,214.6h1.3l3.1,8.8h-1.3l-.9-2.6h-3.4l-.9,2.6h-1.2l3.3-8.8h0ZM411.7,219.8l-1.3-3.9-1.4,3.9h2.7Z"/>
          <path class="cls-1" d="M415.3,214.6h1.4l4.3,7v-7h1.1v8.8h-1.3l-4.3-7v7h-1.1v-8.8Z"/>
          <path class="cls-1" d="M423.3,214.6h1.4l2.5,4.2,2.5-4.2h1.4l-3.3,5.2v3.5h-1.2v-3.5l-3.3-5.2h0Z"/>
        </g>
      </g>
    </g>
  </g>
</svg>