<?xml version="1.0" encoding="UTF-8"?>
<svg id="Layer_1" data-name="Layer 1" xmlns="http://www.w3.org/2000/svg" viewBox="0 0 662.35 182.63">
  <defs>
    <style>
      .cls-1 {
        fill: #FFFFFF;
      }

      .cls-2 {
        fill: #E6E6E6;
      }

      .cls-3 {
        fill: #FFFFFF;
      }
    </style>
  </defs>
  <path class="cls-3" d="M296.41,27.11v17.53c0,3.06,2.46,5.51,5.51,5.51h22.96v-5.24h-22.96c-.16,0-.28-.12-.28-.28v-17.53c0-.16.12-.28.28-.28h22.96v-5.24h-22.96c-3.05,0-5.51,2.47-5.51,5.53Z"/>
  <polygon class="cls-3" points="355 33.26 336.28 33.26 336.28 21.6 331.04 21.6 331.04 50.16 336.28 50.16 336.28 38.5 355 38.5 355 50.16 360.23 50.16 360.23 21.6 355 21.6 355 33.26"/>
  <path class="cls-3" d="M389.83,21.6h-17.49c-3.06,0-5.51,2.46-5.51,5.51v23.04h5.24v-9.6h18.05v9.6h5.28v-23.04c0-3.05-2.51-5.51-5.56-5.51ZM390.1,35.32h-18.05v-8.21c0-.16.12-.28.28-.28h17.49c.16,0,.28.12.28.28v8.21h0Z"/>
  <path class="cls-3" d="M424.84,21.64h-23v28.52h5.24v-9.8h9.36l8.25,9.8h5.72v-1.35l-7.1-8.45h1.54c3.06,0,5.55-2.5,5.55-5.51v-7.7c0-3.02-2.49-5.52-5.55-5.52ZM425.12,34.85c0,.16-.12.28-.28.28h-17.49c-.16,0-.28-.12-.28-.28v-7.7c0-.16.12-.28.28-.28h17.49c.16,0,.28.12.28.28v7.7Z"/>
  <polygon class="cls-3" points="441.87 21.56 436.63 21.56 436.63 50.16 465.18 50.16 465.18 44.92 441.87 44.92 441.87 21.56"/>
  <path class="cls-3" d="M492.43,21.6h-17.53c-3.06,0-5.51,2.46-5.51,5.51v17.53c0,3.06,2.46,5.51,5.51,5.51h17.53c3.01,0,5.51-2.46,5.51-5.51v-17.53c0-3.05-2.49-5.51-5.51-5.51ZM492.67,44.64c0,.16-.12.28-.24.28h-17.53c-.16,0-.28-.12-.28-.28v-17.53c0-.16.12-.28.28-.28h17.53c.12,0,.24.12.24.28v17.53Z"/>
  <polygon class="cls-3" points="502.87 26.83 514.52 26.83 514.52 50.16 519.8 50.16 519.8 26.83 531.42 26.83 531.42 21.6 502.87 21.6 502.87 26.83"/>
  <polygon class="cls-3" points="534.96 26.83 546.62 26.83 546.62 50.16 551.89 50.16 551.89 26.83 563.51 26.83 563.51 21.6 534.96 21.6 534.96 26.83"/>
  <polygon class="cls-3" points="594.8 26.83 594.8 21.6 568.55 21.6 568.55 50.16 594.8 50.16 594.8 44.92 573.82 44.92 573.82 38.5 590.72 38.5 590.72 33.26 573.82 33.26 573.82 26.83 594.8 26.83"/>
  <polygon class="cls-2" points="294.99 74.43 306.65 74.43 306.65 97.75 311.92 97.75 311.92 74.43 323.55 74.43 323.55 69.2 294.99 69.2 294.99 74.43"/>
  <polygon class="cls-2" points="328.58 97.75 354.84 97.75 354.84 92.52 333.86 92.52 333.86 86.09 350.75 86.09 350.75 80.86 333.86 80.86 333.86 74.43 354.84 74.43 354.84 69.2 328.58 69.2 328.58 97.75"/>
  <polygon class="cls-2" points="376.14 81.57 365.75 69.2 360.03 69.2 360.03 97.75 365.27 97.75 365.27 76.81 376.14 89.7 386.97 76.81 386.97 97.75 392.24 97.75 392.24 69.2 386.49 69.2 376.14 81.57"/>
  <path class="cls-2" d="M421.83,69.24h-23v28.52h5.24v-9.8l.12.04,17.65-.04c3.06,0,5.55-2.49,5.55-5.51v-7.7c0-3.02-2.49-5.52-5.55-5.52ZM422.11,82.44c0,.16-.12.28-.28.28h-17.49c-.16,0-.28-.12-.28-.28v-7.7c0-.16.12-.28.28-.28h17.49c.16,0,.28.12.28.28v7.7Z"/>
  <polygon class="cls-2" points="432.26 97.75 458.52 97.75 458.52 92.52 437.54 92.52 437.54 86.09 454.44 86.09 454.44 80.86 437.54 80.86 437.54 74.43 458.52 74.43 458.52 69.2 432.26 69.2 432.26 97.75"/>
  <path class="cls-2" d="M487.51,69.24h-23v28.52h5.24v-9.8h9.36l8.25,9.8h5.72v-1.35l-7.1-8.45h1.54c3.06,0,5.55-2.49,5.55-5.51v-7.7c0-3.02-2.49-5.52-5.55-5.52ZM487.79,82.44c0,.16-.12.28-.28.28h-17.49c-.16,0-.28-.12-.28-.28v-7.7c0-.16.12-.28.28-.28h17.49c.16,0,.28.12.28.28v7.7Z"/>
  <path class="cls-2" d="M522.34,69.2h-17.49c-3.06,0-5.51,2.46-5.51,5.51v23.04h5.24v-9.6h18.05v9.6h5.28v-23.04c0-3.05-2.5-5.51-5.56-5.51ZM522.62,82.92h-18.05v-8.21c0-.16.12-.28.28-.28h17.49c.16,0,.28.12.28.28v8.21h0Z"/>
  <polygon class="cls-2" points="532.97 74.43 544.63 74.43 544.63 97.75 549.9 97.75 549.9 74.43 561.53 74.43 561.53 69.2 532.97 69.2 532.97 74.43"/>
  <path class="cls-2" d="M589.69,92.24c0,.16-.12.28-.24.28h-17.53c-.16,0-.28-.12-.28-.28v-23.04h-5.24v23.04c0,3.06,2.46,5.51,5.51,5.51h17.53c3.01,0,5.51-2.46,5.51-5.51v-23.04h-5.26v23.04Z"/>
  <path class="cls-2" d="M624.27,69.24h-23v28.52h5.24v-9.8h9.36l8.25,9.8h5.72v-1.35l-7.1-8.45h1.54c3.06,0,5.55-2.49,5.55-5.51v-7.7c0-3.02-2.49-5.52-5.55-5.52ZM624.55,82.44c0,.16-.12.28-.28.28h-17.48c-.16,0-.28-.12-.28-.28v-7.7c0-.16.12-.28.28-.28h17.49c.16,0,.28.12.28.28v7.7h0Z"/>
  <polygon class="cls-2" points="662.35 74.43 662.35 69.2 636.1 69.2 636.1 97.75 662.35 97.75 662.35 92.52 641.37 92.52 641.37 86.09 658.26 86.09 658.26 80.86 641.37 80.86 641.37 74.43 662.35 74.43"/>
  <path class="cls-3" d="M296.41,122.3v17.53c0,3.06,2.46,5.51,5.51,5.51h22.96v-5.24h-22.96c-.16,0-.28-.12-.28-.28v-17.53c0-.16.12-.28.28-.28h22.96v-5.24h-22.96c-3.05.02-5.51,2.48-5.51,5.53Z"/>
  <path class="cls-3" d="M353.96,116.79h-17.53c-3.06,0-5.51,2.46-5.51,5.51v17.53c0,3.06,2.46,5.51,5.51,5.51h17.53c3.01,0,5.51-2.46,5.51-5.51v-17.53c0-3.05-2.49-5.51-5.51-5.51ZM354.2,139.84c0,.16-.12.28-.24.28h-17.53c-.16,0-.28-.12-.28-.28v-17.53c0-.16.12-.28.28-.28h17.53c.12,0,.24.12.24.28v17.53Z"/>
  <polygon class="cls-3" points="389.11 137.73 371.54 116.79 365.83 116.79 365.83 145.35 371.06 145.35 371.06 124.41 388.67 145.35 394.38 145.35 394.38 116.79 389.11 116.79 389.11 137.73"/>
  <polygon class="cls-3" points="399.38 122.03 411.04 122.03 411.04 145.35 416.32 145.35 416.32 122.03 427.94 122.03 427.94 116.79 399.38 116.79 399.38 122.03"/>
  <path class="cls-3" d="M455.87,116.83h-23v28.52h5.24v-9.8h9.36l8.25,9.8h5.72v-1.35l-7.1-8.45h1.54c3.06,0,5.55-2.5,5.55-5.51v-7.7c0-3.02-2.5-5.52-5.55-5.52ZM456.14,130.04c0,.16-.12.28-.28.28h-17.49c-.16,0-.28-.12-.28-.28v-7.7c0-.16.12-.28.28-.28h17.49c.16,0,.28.12.28.28v7.7Z"/>
  <path class="cls-3" d="M490.57,116.79h-17.53c-3.06,0-5.51,2.46-5.51,5.51v17.53c0,3.06,2.46,5.51,5.51,5.51h17.53c3.01,0,5.51-2.46,5.51-5.51v-17.53c0-3.05-2.49-5.51-5.51-5.51ZM490.8,139.84c0,.16-.12.28-.24.28h-17.53c-.16,0-.28-.12-.28-.28v-17.53c0-.16.12-.28.28-.28h17.53c.12,0,.24.12.24.28v17.53Z"/>
  <polygon class="cls-3" points="507.7 116.75 502.47 116.75 502.47 145.35 531.02 145.35 531.02 140.11 507.7 140.11 507.7 116.75"/>
  <path class="cls-3" d="M563.66,124.49v-2.18c0-3.06-2.5-5.51-5.51-5.51h-17.53c-3.06,0-5.51,2.46-5.51,5.51v5.87c0,3.06,2.46,5.51,5.51,5.51h17.53c.12,0,.24.12.24.28v5.87c0,.16-.12.28-.24.28h-17.53c-.16,0-.28-.12-.28-.28v-2.18h-5.24v2.18c0,3.06,2.46,5.51,5.51,5.51h17.53c3.01,0,5.51-2.46,5.51-5.51v-5.87c0-3.06-2.5-5.51-5.51-5.51h-17.53c-.16,0-.28-.12-.28-.28v-5.87c0-.16.12-.28.28-.28h17.53c.12,0,.24.12.24.28v2.18h5.28Z"/>
  <path class="cls-3" d="M39.2,56.73h30.53c2.74,0,5.22-1.73,6.17-4.3.76-2.05.48-4.25-.78-6.05-1.25-1.79-3.21-2.82-5.4-2.82h-30.53c-8.09,0-14.68,6.58-14.68,14.68v49.03c0,8.09,6.58,14.68,14.68,14.68h47.52c3.63,0,6.58-2.96,6.58-6.58s-2.95-6.58-6.58-6.58h-47.51c-.83,0-1.52-.69-1.52-1.52v-49.03c0-.84.69-1.52,1.52-1.52ZM163.26,56.73h33.76c3.57,0,6.54-2.7,6.76-6.14.12-1.84-.5-3.59-1.77-4.94-1.24-1.32-2.99-2.08-4.8-2.08h-34.28c-8.9,0-16.13,7.24-16.13,16.13v47.57c0,8.09,6.58,14.68,14.68,14.68,0,0,23.98-.03,43.38-.05h.11s6.63,0,6.63,0c1,0,1.83-.06,2.6-.18,3.87-.61,7.26-2.48,10.09-5.54,3.61-3.91,5.6-9.14,5.6-14.73v-56.3c0-13.97-11.36-25.34-25.34-25.34H34.16C15.33,19.81,0,35.13,0,53.97v53.65c0,20.9,17.01,37.91,37.91,37.91h170.78c2.16,2.92,5.56,4.65,9.19,4.65,6.29,0,11.42-5.12,11.42-11.42s-5.12-11.42-11.42-11.42c-4.32,0-8.27,2.45-10.2,6.29H37.91c-14.34,0-26.01-11.67-26.01-26.01v-51.46c0-13.48,10.97-24.45,24.45-24.45h168.21c7.41,0,13.45,6.03,13.45,13.45v54.02c0,5.3-4.32,9.62-9.62,9.62h-46.89c-.83,0-1.52-.69-1.52-1.52v-47.26c0-1.81,1.46-3.29,3.28-3.29ZM217.88,134.66c2.26,0,4.1,1.83,4.1,4.1s-1.83,4.1-4.1,4.1-4.1-1.83-4.1-4.1,1.83-4.1,4.1-4.1ZM113.15,121.96c3.63,0,6.58-2.96,6.58-6.58v-58.65h17.03c3.62,0,6.57-2.95,6.58-6.57,0-1.76-.68-3.42-1.92-4.67s-2.9-1.93-4.66-1.93h-48.46c-2.74,0-5.22,1.73-6.17,4.3-.76,2.05-.48,4.25.78,6.05,1.25,1.79,3.21,2.82,5.4,2.82h18.26v58.66c0,3.63,2.95,6.57,6.57,6.57Z"/>
  <rect class="cls-3" x="261.57" width="2.06" height="168"/>
  <g>
    <path class="cls-1" d="M323.83,167.34v3.81h9.07v4.35h-9.07v6.55h-6.05v-19.07h15.82v4.35h-9.77Z"/>
    <path class="cls-1" d="M334.98,182.17v-14.38h4.56v14.38h-4.56Z"/>
    <path class="cls-1" d="M349.31,178.27h-2.41v3.88h-4.56v-14.38h7.17c4.12,0,6.49,1.85,6.49,5.11,0,2.13-.92,3.69-2.59,4.58l3.11,4.7h-5.18l-2.04-3.88ZM349.51,174.99c1.36,0,2.15-.7,2.15-1.99s-.79-1.95-2.15-1.95h-2.61v3.94h2.61Z"/>
    <path class="cls-1" d="M370.39,169.51l-1.69,3.28c-1.58-.84-3.82-1.6-5.11-1.6-.77,0-1.27.25-1.27.78,0,2.11,8.03.86,8.03,6.05,0,3.06-2.9,4.51-6.34,4.51-2.61,0-5.46-.86-7.39-2.28l1.71-3.24c1.58,1.25,4.15,2.2,5.73,2.2.97,0,1.58-.31,1.58-.96,0-2.17-8.03-.8-8.03-5.87,0-2.77,2.52-4.53,6.36-4.53,2.35,0,4.76.66,6.43,1.66Z"/>
    <path class="cls-1" d="M379.99,171.36v10.98h-4.58v-10.98h-4.45v-3.41h13.51v3.41h-4.47Z"/>
    <path class="cls-1" d="M405.5,166.46l-3.5,3.88c-1.29-1.53-3.18-2.54-4.88-2.54-2.77,0-4.88,2.1-4.88,4.92s2.1,4.94,4.88,4.94c1.58,0,3.48-.87,4.88-2.21l3.5,3.5c-2.22,2.24-5.58,3.69-8.67,3.69-6.22,0-10.81-4.21-10.81-9.86s4.67-9.7,11.01-9.7c3.1,0,6.4,1.31,8.47,3.39Z"/>
    <path class="cls-1" d="M410.59,179.98l-.92,2.3h-4.69l6.56-14.38h4.69l6.34,14.38h-4.87l-.9-2.3h-6.21ZM413.75,172.17l-1.89,4.7h3.73l-1.84-4.7Z"/>
    <path class="cls-1" d="M434.51,178.56v3.57h-11.01v-14.38h4.56v10.81h6.45Z"/>
    <path class="cls-1" d="M446.66,178.58v3.57h-11.01v-14.38h4.56v10.81h6.45Z"/>
    <path class="cls-1" d="M308.42,178.33h-7.61l-1.4,3.77h-2.4l6.31-16.85h2.63l6.28,16.85h-2.4l-1.4-3.77ZM307.77,176.53l-3.15-8.56-3.15,8.56h6.31Z"/>
    <g>
      <path class="cls-1" d="M450.18,169.25c.77-1.32,1.81-2.35,3.14-3.1,1.33-.75,2.8-1.12,4.42-1.12,1.9,0,3.56.45,4.98,1.34,1.42.89,2.45,2.16,3.1,3.79h-2.73c-.48-1.02-1.18-1.81-2.09-2.36-.91-.55-2-.83-3.27-.83s-2.31.28-3.28.83c-.97.55-1.73,1.33-2.28,2.35-.55,1.01-.83,2.2-.83,3.56s.28,2.52.83,3.54c.55,1.01,1.31,1.8,2.28,2.35.97.55,2.06.83,3.28.83s2.36-.27,3.27-.81,1.61-1.33,2.09-2.35h2.73c-.65,1.62-1.68,2.87-3.1,3.76-1.42.88-3.08,1.33-4.98,1.33-1.62,0-3.09-.37-4.42-1.11-1.33-.74-2.37-1.76-3.14-3.07-.77-1.31-1.15-2.8-1.15-4.45s.38-3.14,1.15-4.46Z"/>
      <path class="cls-1" d="M472.67,181.26c-1.33-.74-2.39-1.77-3.17-3.09-.78-1.32-1.16-2.81-1.16-4.46s.39-3.14,1.16-4.46c.78-1.32,1.83-2.35,3.17-3.09,1.33-.74,2.81-1.11,4.43-1.11s3.12.37,4.45,1.11c1.33.74,2.39,1.76,3.15,3.08.77,1.31,1.15,2.8,1.15,4.47s-.38,3.16-1.15,4.47c-.77,1.31-1.82,2.34-3.15,3.08-1.33.74-2.82,1.11-4.45,1.11s-3.09-.37-4.43-1.11ZM480.39,179.62c.98-.55,1.74-1.34,2.3-2.36s.84-2.2.84-3.55-.28-2.55-.84-3.56c-.56-1.01-1.32-1.79-2.29-2.35-.97-.55-2.07-.83-3.3-.83s-2.34.28-3.3.83c-.97.55-1.73,1.33-2.29,2.35-.56,1.01-.84,2.2-.84,3.56s.28,2.53.84,3.55c.56,1.02,1.33,1.81,2.3,2.36.98.55,2.07.83,3.29.83s2.31-.28,3.29-.83Z"/>
      <path class="cls-1" d="M506.55,165.37v16.82h-2.28v-12.54l-5.75,12.54h-1.6l-5.78-12.57v12.57h-2.28v-16.82h2.45l6.41,13.91,6.41-13.91h2.43Z"/>
      <path class="cls-1" d="M520.58,173.73c-.99.93-2.51,1.4-4.54,1.4h-3.35v7.07h-2.28v-16.94h5.63c1.97,0,3.47.46,4.49,1.39,1.03.92,1.54,2.11,1.54,3.57s-.5,2.58-1.49,3.51ZM518.84,172.5c.6-.53.9-1.3.9-2.29,0-2.09-1.23-3.14-3.7-3.14h-3.35v6.22h3.35c1.27,0,2.2-.27,2.8-.8Z"/>
      <path class="cls-1" d="M535.2,178.43h-7.61l-1.4,3.77h-2.4l6.31-16.85h2.63l6.28,16.85h-2.4l-1.4-3.77ZM534.55,176.63l-3.15-8.56-3.15,8.56h6.31Z"/>
      <path class="cls-1" d="M555.47,182.2h-2.28l-9.16-13.49v13.49h-2.28v-16.97h2.28l9.16,13.47v-13.47h2.28v16.97Z"/>
      <path class="cls-1" d="M571.56,165.25l-5.68,10.55v6.39h-2.28v-6.39l-5.71-10.55h2.53l4.3,8.58,4.3-8.58h2.53Z"/>
    </g>
  </g>
</svg>
