<?xml version="1.0" encoding="UTF-8"?>
<svg id="Layer_1" data-name="Layer 1" xmlns="http://www.w3.org/2000/svg" viewBox="117.5 196.3 686.5 171.9">
  <defs>
    <style>
      .cls-1 {
        fill: #c02a27;
      }

      .cls-2 {
        fill: #ffffff;
      }

      .cls-3 {
        fill: #009cd5;
      }
    </style>
  </defs>
  <g>
    <path class="cls-3" d="M160.13,281.11l2.4-7.29-4.15,2.46-2.32-4.74-2.42,7.75-3.83,2.73,2.96,4.56-.48,1.64,1.06-.72.37.54-1.72,1.16-1.44,4.95,3.72-2.51,2.19,4.28,1.91-7.28,4.48-2.71-2.72-4.82ZM153.7,283.76l-.52-.4.6-.78.52.4-.6.78ZM156.05,277.87l.54.37-.99,1.44-.54-.37.99-1.44ZM156.09,289.15l-.53-.39.89-1.19.53.39-.89,1.19ZM159.19,278.47l.1,1.63-.66.04-.1-1.63.66-.04ZM159.28,285.04h-.66v-1.3h.66v1.3Z"/>
    <path class="cls-3" d="M149.73,300.67c.55-1.33,1.41-3.34,2.73-6.35v-.28l-2.45,1.66c-.11,2.22-.2,3.84-.28,4.97Z"/>
    <path class="cls-3" d="M153.12,297.69l.52-4.41c-.17.38-.34.77-.52,1.18v3.23Z"/>
    <path class="cls-3" d="M260.4,266.91c-1.32-27.8-14.8-43.26-28.29-52.47,15.3,15.13,17.44,28.95,16.78,45.89-.66,16.94-7.24,32.08-11.51,41.78s-4.28,10.2-8.55,9.38-4.93-1.32-4.93-1.32c0,0-.82,3.13-10.53,16.94s-24.67,21.55-33.06,24.51-8.72-1.64-12.17-9.54-7.24-21.38-2.47-43.59c4.77-22.21,13.54-37.94,13.54-37.94l-23.8-9.76c-25.33,49.13-16.39,72.7-9.98,83.89s17.11,14.47,25.17,17.93c8.06,3.45,17.76,9.21,28.79,8.39,11.02-.82,26.54-7.13,38.16-23.58s24.18-42.71,22.86-70.51ZM159.85,298.56l-1.45-6.17-.59,2.24,1.35,4.47-.63.19-1.04-3.45-.74,2.81-2.51-4.9-1.13,9.53v.47h-.66v-7.79c-1.31,3.01-2.68,6.21-2.96,7.09-.08.47-.17.49-.28.52l-.37-.14c-.04-.06-.08-.12.02-.46.12-.82.32-4.24.46-6.82l-.48.33,2.01-6.9-4.57,5.55-.51-.42,5.55-6.73.26-.89-5.76,1.05-.12-.65,5.81-1.06-1.11-1.71-4.29.92-.14-.64,4.05-.87-1.55-2.39,2.52-1.79-2.84-2.86.47-.46,2.91,2.94,1.26-.89-3.87-3.29.43-.5,3.66,3.11.05-.15-1.49-8.97.65-.11,1.27,7.68.78-2.48c-.17-1.04-.75-3.78-1.14-5.56l.64-.14c.45,2.07.74,3.44.91,4.36l1.17-3.75,2.51,5.12.64-9.73.66.04-.57,8.77,3.73-7.54.59.29-3.21,6.48,2.16-3.04.54.38-3.44,4.84,4.84-2.86-2.38,7.22,4.8-6.38.53.4-5.74,7.63,5.39-1.41.17.64-5.73,1.49,1.1,1.95,4.36-2.97.37.54-4.4,3,1.43,2.52-2.84,1.71,3.45,3.07-.44.49-3.6-3.21-1.23.74,4.49,3.37-.4.53-4.48-3.37-.37,1.42,1.73,7.38-.64.15Z"/>
  </g>
  <path class="cls-1" d="M237.87,223.65c-6.58-8.22-14.47-12.01-22.21-14.8s-15.79-6.74-21.05-7.57-22.21-.99-36.19,12.01c-13.98,12.99-22.86,32.46-29.01,53.07-6.14,20.62-7.9,60.64,23.58,80.32,0,0-13.82-9.87-15.96-30.76s2.14-40.79,8.55-55.1c6.42-14.31,6.99-15.54,11.35-13.41s5.59,2.88,5.59,2.88c0,0,6.91-14.15,19.08-25.99,12.17-11.84,25.88-16.61,30.16-15.08,4.28,1.53,10.14,15.57,10.8,33.01.66,17.44-7.73,41.78-15.3,56.75l22.37,9.38s11.51-18.26,15.79-39.64-.99-36.85-7.57-45.07ZM236.88,285.33c-1.32,7.98-5.18,15.96-12.99,18.59,2.88-5.84,8.06-14.72,5.51-23.6,0,0-1.15,6-5.51,9.13.9-1.97.58-3.62.58-3.62,0,0-1.64,1.23-4.28,5.67s-3.45,6.66-4.11,8.96c0,0-2.88-7.73-.08-13.65s8.06-11.35,8.06-14.89c.66,2.06,1.15,3.54-.58,6.99,3.54-4.28,9.38-11.02,10.03-16.28,1.48.99,3.54,4.36,1.07,15.54,1.48-.33,2.63-5.26,2.63-5.26,0,0,.99,4.44-.33,12.42Z"/>
  <g>
    <path class="cls-2" d="M274.36,335.37c-.47-.99-.72-2.06-.77-3.2-2.27,4.62-4.62,9.52-7.04,14.7-2.43,5.18-4.88,10.51-7.35,15.98-.41.99-.97,1.38-1.66,1.17-.7-.21-1.33-.75-1.9-1.6-.57-.85-.97-1.94-1.2-3.25-.23-1.32-.12-2.61.35-3.89.16-.43.63-1.47,1.43-3.14.8-1.67,1.81-3.73,3.02-6.18,1.21-2.45,2.57-5.15,4.06-8.1,1.5-2.95,3.03-5.95,4.61-9,1.57-3.05,3.1-6.04,4.57-8.95,1.47-2.91,2.79-5.5,3.95-7.78,1.16-2.27,2.12-4.12,2.86-5.54.75-1.42,1.15-2.17,1.2-2.24.57-1.07,1.29-1.92,2.17-2.56.88-.64,1.68-.96,2.4-.96h2.25c.72,0,1.15.34,1.28,1.01.13.68-.09,1.51-.66,2.5l-1.32,2.34c2.73-2.56,5.28-4.31,7.62-5.27,2.35-.96,4.11-.62,5.3,1.01.77,1.14,1.12,2.7,1.04,4.69-.08,1.99-.5,4.19-1.28,6.6-.77,2.42-1.85,4.94-3.21,7.56-1.37,2.63-2.9,5.15-4.61,7.56-1.76,2.41-3.51,4.35-5.26,5.81-1.75,1.46-3.41,2.43-4.95,2.93-1.55.5-2.93.55-4.14.16-1.21-.39-2.13-1.19-2.75-2.4ZM281.17,317.58c-1.34,2.34-2.37,4.39-3.1,6.13-.72,1.74-1.2,3.23-1.43,4.47-.23,1.24-.28,2.26-.16,3.04.13.78.37,1.35.74,1.7.93.85,2.33.59,4.22-.8,1.88-1.38,3.81-3.85,5.77-7.4.98-1.77,1.88-3.53,2.71-5.27.82-1.74,1.48-3.37,1.97-4.9.49-1.53.77-2.84.85-3.94.08-1.1-.09-1.9-.5-2.4-.41-.5-1.03-.62-1.86-.37-.83.25-1.75.8-2.79,1.65-1.03.85-2.12,1.97-3.25,3.36-1.14,1.38-2.19,2.97-3.17,4.74Z"/>
    <path class="cls-2" d="M331.41,304.37c-.21.36-.7,1.21-1.47,2.56-.77,1.35-1.64,2.97-2.59,4.85-.95,1.88-1.95,3.83-2.98,5.86-1.03,2.02-1.94,3.89-2.71,5.59-.98,2.13-1.52,3.67-1.63,4.63-.1.96.05,1.51.46,1.65.52.21,1.38-.25,2.59-1.38,1.21-1.13,2.55-2.63,4.02-4.47,1.47-1.85,2.95-3.83,4.45-5.97,1.5-2.13,2.79-4.08,3.87-5.86.67-1.13,1.25-1.86,1.74-2.18.49-.32.85-.32,1.08,0,.23.32.32.84.27,1.54-.05.71-.28,1.49-.7,2.34-.36.71-.96,1.78-1.78,3.2-.83,1.42-1.82,2.98-2.98,4.69-1.16,1.7-2.44,3.48-3.83,5.33-1.39,1.85-2.8,3.55-4.22,5.11-1.42,1.56-2.8,2.93-4.14,4.1-1.34,1.17-2.58,1.9-3.72,2.18-1.24.35-2.25.34-3.02-.05-.77-.39-1.34-1.05-1.7-1.97-.36-.92-.53-2.04-.5-3.36.02-1.31.24-2.75.66-4.31-1.86,2.34-3.74,4.44-5.65,6.28-1.91,1.85-3.61,2.98-5.11,3.41-1.55.43-2.74.32-3.56-.32-.83-.64-1.35-1.63-1.59-2.98-.23-1.35-.19-2.93.12-4.74.31-1.81.85-3.67,1.63-5.59.36-.85,1.12-2.47,2.28-4.85,1.16-2.38,2.54-5.11,4.14-8.2,1.6-3.09,3.3-6.39,5.11-9.91,1.81-3.52,3.54-6.87,5.19-10.07-3.51.21-6.57.39-9.17.53-2.61.14-4.32.21-5.15.21-1.34.07-2.09-.39-2.24-1.38-.15-.99.05-2.08.62-3.25.57-1.17,1.41-2.27,2.52-3.3,1.11-1.03,2.26-1.54,3.45-1.54s3.17-.02,5.81-.05c2.63-.03,5.6-.09,8.9-.16l3.33-6.18c.57-.99,1.29-1.83,2.17-2.5.88-.67,1.68-1.01,2.4-1.01h2.24c.72,0,1.15.34,1.28,1.01.13.68-.09,1.51-.66,2.5-.1.14-.45.76-1.04,1.86-.59,1.1-1.33,2.47-2.21,4.1l2.94-.32c1.03-.07,1.64.21,1.82.85.18.64.06,1.4-.35,2.29-.41.89-1.04,1.74-1.9,2.56-.85.82-1.79,1.33-2.83,1.54l-3.64.64c-1.6,3.05-3.32,6.32-5.15,9.8-1.83,3.48-3.56,6.78-5.19,9.91-1.63,3.13-3.06,5.93-4.3,8.41-1.24,2.49-2.09,4.23-2.55,5.22-.93,2.13-1.45,3.67-1.55,4.63-.1.96.03,1.51.39,1.65.52.21,1.38-.25,2.59-1.38,1.21-1.13,2.55-2.61,4.03-4.42,1.47-1.81,2.94-3.78,4.41-5.91,1.47-2.13,2.72-4.08,3.75-5.86.93-1.85,1.78-3.44,2.55-4.79.77-1.35,1.29-2.27,1.55-2.77.57-1.07,1.29-1.92,2.17-2.56.88-.64,1.68-.96,2.4-.96h2.24c.72,0,1.15.34,1.28,1.01.13.68-.09,1.51-.66,2.5ZM340.93,287.43c0,1.49-.38,2.75-1.12,3.78-.75,1.03-1.64,1.54-2.67,1.54s-1.94-.51-2.71-1.54c-.77-1.03-1.16-2.29-1.16-3.78s.39-2.64,1.16-3.67c.77-1.03,1.68-1.54,2.71-1.54s1.92.52,2.67,1.54c.75,1.03,1.12,2.26,1.12,3.67Z"/>
    <path class="cls-2" d="M370.58,301.07c1.34-.28,2.45-.21,3.33.21.88.43,1.34,1.33,1.39,2.72.05,1.38-.41,3.34-1.39,5.86-.98,2.52-2.63,5.77-4.95,9.75-1.19,1.92-2.05,3.52-2.59,4.79-.54,1.28-.9,2.29-1.08,3.04-.18.75-.22,1.26-.12,1.54.1.28.26.46.46.53.52.21,1.38-.25,2.59-1.38,1.21-1.13,2.55-2.63,4.02-4.47,1.47-1.85,2.95-3.83,4.45-5.97,1.5-2.13,2.76-4.08,3.79-5.86.72-1.13,1.33-1.86,1.82-2.18.49-.32.85-.32,1.08,0,.23.32.32.84.27,1.54-.05.71-.26,1.49-.62,2.34-.36.71-.97,1.78-1.82,3.2-.85,1.42-1.86,2.98-3.02,4.69-1.16,1.7-2.43,3.48-3.79,5.33-1.37,1.85-2.76,3.55-4.18,5.11-1.42,1.56-2.8,2.93-4.14,4.1-1.34,1.17-2.58,1.9-3.72,2.18-1.55.43-2.81.28-3.79-.43-.98-.71-1.56-1.86-1.74-3.46-.18-1.6.08-3.64.77-6.13.7-2.48,1.95-5.33,3.75-8.52,2.17-3.76,3.75-6.51,4.76-8.26,1.01-1.74,1.23-2.79.66-3.14-.41-.28-1.23.09-2.44,1.12-1.21,1.03-2.62,2.47-4.22,4.31-1.6,1.85-3.25,3.94-4.96,6.28-1.7,2.34-3.25,4.65-4.64,6.92l-4.18,7.88c-.52,1-1.23,1.85-2.13,2.56-.9.71-1.72,1.07-2.44,1.07h-2.25c-.72,0-1.14-.35-1.24-1.07-.1-.71.13-1.56.7-2.56.77-1.56,1.6-3.23,2.48-5.01.72-1.49,1.55-3.12,2.48-4.9.93-1.77,1.91-3.51,2.94-5.22,2.17-3.69,3.75-6.43,4.76-8.2,1.01-1.77,1.23-2.84.66-3.2-.31-.21-.88-.05-1.7.48-.83.53-1.79,1.35-2.9,2.45-1.11,1.1-2.32,2.41-3.64,3.94-1.32,1.53-2.62,3.16-3.91,4.9-1.29,1.74-2.52,3.5-3.68,5.27-1.16,1.78-2.16,3.45-2.98,5.01-.1.28-.21.46-.31.53l-2.01,3.94c-.62,1.06-1.37,1.94-2.25,2.61-.88.68-1.68,1.01-2.4,1.01h-2.25c-.72,0-1.13-.35-1.24-1.07-.1-.71.13-1.56.7-2.56l15.56-30.36c.57-1.07,1.29-1.92,2.17-2.56.88-.64,1.68-.96,2.4-.96h2.25c.72,0,1.15.34,1.28,1.01.13.68-.09,1.51-.66,2.5l-3.25,6.39c2.17-2.49,4.33-4.63,6.5-6.44s4.21-2.89,6.12-3.25c.98-.21,1.83-.23,2.55-.05.72.18,1.25.59,1.59,1.22.34.64.44,1.54.31,2.72-.13,1.17-.53,2.68-1.2,4.53,1.91-2.2,3.82-4.06,5.73-5.59,1.91-1.53,3.74-2.47,5.5-2.82Z"/>
    <path class="cls-2" d="M391.79,304.37c-.21.36-.68,1.21-1.43,2.56-.75,1.35-1.6,2.97-2.55,4.85-.95,1.88-1.95,3.83-2.98,5.86-1.03,2.02-1.94,3.89-2.71,5.59-.98,2.13-1.52,3.67-1.63,4.63-.1.96.05,1.51.46,1.65.52.21,1.37-.23,2.55-1.33,1.19-1.1,2.5-2.56,3.95-4.37,1.44-1.81,2.9-3.78,4.37-5.91,1.47-2.13,2.75-4.08,3.83-5.86.93-1.85,1.78-3.46,2.55-4.85.77-1.38,1.29-2.33,1.55-2.82.62-1.07,1.37-1.92,2.25-2.56.88-.64,1.68-.96,2.4-.96h2.17c.72,0,1.15.34,1.28,1.01.13.68-.09,1.51-.66,2.5-.21.36-.68,1.21-1.43,2.56-.75,1.35-1.61,2.97-2.59,4.85-.98,1.88-1.99,3.83-3.02,5.86-1.03,2.02-1.91,3.89-2.63,5.59-.98,2.13-1.52,3.67-1.63,4.63-.1.96.03,1.51.39,1.65.52.21,1.39-.25,2.63-1.38,1.24-1.13,2.59-2.63,4.06-4.47,1.47-1.85,2.95-3.83,4.45-5.97,1.5-2.13,2.76-4.08,3.79-5.86.67-1.13,1.25-1.86,1.74-2.18.49-.32.85-.32,1.08,0,.23.32.32.84.27,1.54-.05.71-.26,1.49-.62,2.34-.36.71-.95,1.78-1.78,3.2-.83,1.42-1.82,2.98-2.98,4.69-1.16,1.7-2.44,3.48-3.83,5.33-1.39,1.85-2.8,3.55-4.22,5.11-1.42,1.56-2.8,2.93-4.14,4.1-1.34,1.17-2.58,1.9-3.72,2.18-1.24.35-2.26.32-3.06-.11-.8-.43-1.38-1.1-1.74-2.02-.36-.92-.53-2.04-.5-3.36.03-1.31.24-2.75.66-4.31-1.86,2.41-3.74,4.55-5.65,6.39-1.91,1.85-3.61,2.98-5.11,3.41-1.5.43-2.7.35-3.6-.21-.9-.57-1.5-1.47-1.78-2.72-.28-1.24-.26-2.79.08-4.63.34-1.85.99-3.87,1.98-6.07.62-1.42,1.43-3.18,2.44-5.27,1.01-2.09,2.03-4.15,3.06-6.18,1.03-2.02,1.97-3.85,2.82-5.49.85-1.63,1.43-2.7,1.74-3.2.62-1.07,1.37-1.92,2.25-2.56.88-.64,1.68-.96,2.4-.96h2.25c.72,0,1.13.34,1.24,1.01.1.68-.13,1.51-.7,2.5Z"/>
    <path class="cls-2" d="M446.36,301.07c1.34-.28,2.45-.21,3.33.21.88.43,1.34,1.33,1.39,2.72.05,1.38-.41,3.34-1.39,5.86-.98,2.52-2.63,5.77-4.96,9.75-1.19,1.92-2.05,3.52-2.59,4.79-.54,1.28-.9,2.29-1.08,3.04-.18.75-.22,1.26-.12,1.54.1.28.26.46.46.53.52.21,1.38-.25,2.59-1.38,1.21-1.13,2.55-2.63,4.02-4.47,1.47-1.85,2.95-3.83,4.45-5.97,1.5-2.13,2.76-4.08,3.79-5.86.72-1.13,1.33-1.86,1.82-2.18.49-.32.85-.32,1.08,0,.23.32.32.84.27,1.54-.05.71-.26,1.49-.62,2.34-.36.71-.97,1.78-1.82,3.2-.85,1.42-1.86,2.98-3.02,4.69-1.16,1.7-2.43,3.48-3.79,5.33-1.37,1.85-2.76,3.55-4.18,5.11-1.42,1.56-2.8,2.93-4.14,4.1-1.34,1.17-2.58,1.9-3.72,2.18-1.55.43-2.81.28-3.79-.43-.98-.71-1.56-1.86-1.74-3.46-.18-1.6.08-3.64.77-6.13.7-2.48,1.95-5.33,3.75-8.52,2.17-3.76,3.75-6.51,4.76-8.26,1.01-1.74,1.22-2.79.66-3.14-.41-.28-1.23.09-2.44,1.12-1.21,1.03-2.62,2.47-4.22,4.31-1.6,1.85-3.25,3.94-4.95,6.28-1.7,2.34-3.25,4.65-4.65,6.92l-4.18,7.88c-.52,1-1.23,1.85-2.13,2.56-.9.71-1.72,1.07-2.44,1.07h-2.25c-.72,0-1.13-.35-1.24-1.07-.1-.71.13-1.56.7-2.56.77-1.56,1.6-3.23,2.48-5.01.72-1.49,1.55-3.12,2.48-4.9.93-1.77,1.91-3.51,2.94-5.22,2.17-3.69,3.75-6.43,4.76-8.2,1.01-1.77,1.22-2.84.66-3.2-.31-.21-.88-.05-1.7.48-.83.53-1.79,1.35-2.9,2.45-1.11,1.1-2.32,2.41-3.64,3.94-1.32,1.53-2.62,3.16-3.91,4.9-1.29,1.74-2.52,3.5-3.68,5.27-1.16,1.78-2.16,3.45-2.98,5.01-.1.28-.21.46-.31.53l-2.01,3.94c-.62,1.06-1.37,1.94-2.25,2.61-.88.68-1.68,1.01-2.4,1.01h-2.24c-.72,0-1.13-.35-1.24-1.07-.1-.71.13-1.56.7-2.56l15.56-30.36c.57-1.07,1.29-1.92,2.17-2.56.88-.64,1.68-.96,2.4-.96h2.24c.72,0,1.15.34,1.28,1.01.13.68-.09,1.51-.66,2.5l-3.25,6.39c2.17-2.49,4.33-4.63,6.5-6.44,2.17-1.81,4.2-2.89,6.12-3.25.98-.21,1.83-.23,2.55-.05.72.18,1.25.59,1.59,1.22.34.64.44,1.54.31,2.72-.13,1.17-.53,2.68-1.2,4.53,1.91-2.2,3.82-4.06,5.73-5.59,1.91-1.53,3.74-2.47,5.5-2.82Z"/>
    <path class="cls-2" d="M543.82,269.01c-2.53,4.55-5.03,9.2-7.51,13.95-1.08,2.06-2.19,4.21-3.33,6.44-1.14,2.24-2.28,4.51-3.45,6.82-1.16,2.31-2.3,4.6-3.41,6.87-1.11,2.27-2.16,4.47-3.14,6.6-2.43,5.18-4.19,9.27-5.3,12.25-1.11,2.98-1.73,5.1-1.86,6.34-.13,1.24.21,1.69,1.01,1.33.8-.35,1.91-1.31,3.33-2.88,1.42-1.56,3.08-3.64,4.99-6.23,1.91-2.59,3.95-5.49,6.12-8.68.62-.92,1.16-1.47,1.62-1.65.47-.18.77-.07.93.32.15.39.15.98,0,1.76-.16.78-.49,1.63-1.01,2.56-2.01,3.48-4.06,6.69-6.15,9.64-2.09,2.95-4.12,5.49-6.08,7.62-1.96,2.13-3.82,3.78-5.57,4.95-1.76,1.17-3.33,1.76-4.72,1.76-2.63,0-4.05-1.65-4.26-4.95-.21-3.3.7-7.65,2.71-13.05l-17.96-.43-13.93,14.49c-1.03,1.07-2.14,1.94-3.33,2.61-1.19.68-2.14,1.01-2.86,1.01h-2.24c-.72,0-1.2-.35-1.43-1.07-.23-.71.17-1.56,1.2-2.56l65.26-64.44c1.08-.99,2.22-1.83,3.41-2.5,1.19-.67,2.14-1.01,2.86-1.01h3.87c.41,0,.66.2.74.59.08.39-.09.91-.5,1.54ZM495.21,315.66l15.48.43c.67-1.49,1.41-3.04,2.21-4.63.8-1.6,1.69-3.28,2.67-5.06,1.6-2.84,3.3-5.86,5.11-9.05,1.81-3.2,3.57-6.28,5.3-9.27,1.73-2.98,3.34-5.66,4.84-8.04,1.5-2.38,2.73-4.17,3.72-5.38l-39.33,41.01Z"/>
    <path class="cls-2" d="M542.58,304.37c-.21.36-.7,1.21-1.47,2.56-.77,1.35-1.64,2.97-2.59,4.85-.96,1.88-1.95,3.83-2.98,5.86-1.03,2.02-1.94,3.89-2.71,5.59-.98,2.13-1.52,3.67-1.63,4.63-.1.96.05,1.51.46,1.65.52.21,1.38-.25,2.59-1.38,1.21-1.13,2.55-2.63,4.03-4.47,1.47-1.85,2.95-3.83,4.45-5.97,1.5-2.13,2.79-4.08,3.87-5.86.67-1.13,1.25-1.86,1.74-2.18.49-.32.85-.32,1.08,0,.23.32.32.84.27,1.54-.05.71-.28,1.49-.7,2.34-.36.71-.96,1.78-1.78,3.2-.83,1.42-1.82,2.98-2.98,4.69-1.16,1.7-2.44,3.48-3.83,5.33-1.39,1.85-2.8,3.55-4.22,5.11-1.42,1.56-2.8,2.93-4.14,4.1-1.34,1.17-2.58,1.9-3.72,2.18-1.5.43-2.66.32-3.48-.32-.83-.64-1.35-1.63-1.59-2.98-.23-1.35-.19-2.93.12-4.74.31-1.81.88-3.67,1.7-5.59.57-1.42,1.35-3.18,2.36-5.27,1-2.09,2.02-4.15,3.06-6.18,1.03-2.02,1.99-3.85,2.86-5.49.88-1.63,1.47-2.7,1.78-3.2.57-1.07,1.29-1.92,2.17-2.56.88-.64,1.68-.96,2.4-.96h2.24c.72,0,1.15.34,1.28,1.01.13.68-.09,1.51-.66,2.5ZM550.17,287.97c0,1.63-.4,3.02-1.2,4.15-.8,1.14-1.79,1.7-2.98,1.7s-2.19-.57-3.02-1.7c-.83-1.13-1.24-2.52-1.24-4.15s.41-3,1.24-4.1c.83-1.1,1.83-1.65,3.02-1.65s2.18.55,2.98,1.65c.8,1.1,1.2,2.47,1.2,4.1Z"/>
    <path class="cls-2" d="M569.67,311.83c.57-.71,1.11-1.19,1.63-1.44.51-.25.93-.3,1.24-.16.31.14.45.5.43,1.06-.03.57-.3,1.32-.81,2.24-1.91,3.2-3.95,5.72-6.12,7.56-2.17,1.85-4.18,3.14-6.04,3.89-1.86.75-3.44,1.01-4.76.8-1.32-.21-2.05-.78-2.21-1.7-.1-.57.12-1.45.66-2.66.54-1.21,1.2-2.54,1.97-3.99.77-1.45,1.59-2.89,2.44-4.31.85-1.42,1.54-2.63,2.05-3.62-.83.28-1.82.98-2.98,2.08-1.16,1.1-2.34,2.38-3.52,3.83-1.19,1.46-2.33,3-3.44,4.63-1.11,1.63-2.03,3.16-2.75,4.58-.72,1.42-1.39,2.75-2.01,3.99-.62,1.24-1.16,2.33-1.63,3.25-.57,1.06-1.06,2.02-1.47,2.88-.62,1.06-1.37,1.94-2.25,2.61-.88.68-1.68,1.01-2.4,1.01h-2.25c-.72,0-1.13-.35-1.24-1.07-.1-.71.13-1.56.7-2.56l15.56-30.36c.57-1.07,1.29-1.92,2.17-2.56.88-.64,1.68-.96,2.4-.96h2.24c.72,0,1.15.34,1.28,1.01.13.68-.09,1.51-.66,2.5l-2.71,5.01c1.6-1.92,3.17-3.53,4.72-4.85,1.55-1.31,2.95-2.33,4.22-3.04,1.26-.71,2.35-1.1,3.25-1.17.9-.07,1.54.14,1.9.64.67,1,.7,2.36.08,4.1-.62,1.74-1.47,3.53-2.55,5.38-1.08,1.85-2.17,3.59-3.25,5.22-1.08,1.63-1.73,2.84-1.94,3.62,1.65-.78,3.08-1.77,4.29-2.98,1.21-1.21,2.46-2.7,3.75-4.47Z"/>
    <path class="cls-2" d="M604.51,279.34c2.37-4.26,5.39-7.4,9.06-9.43,3.66-2.02,8.31-3.04,13.93-3.04,1.44,0,2.58.32,3.41.96.82.64.88,1.92.16,3.83-.46,1.14-1.19,2.34-2.17,3.62-.98,1.28-2.06,2.2-3.25,2.77-.57.21-1.19.37-1.86.48-.67.11-1.26.09-1.78-.05-.52-.14-.88-.41-1.08-.8-.21-.39-.13-.91.23-1.54.21-.35.48-.76.81-1.23.34-.46.63-.92.89-1.38.26-.46.45-.89.58-1.28.13-.39.09-.69-.12-.91-1.45-.35-2.84-.41-4.18-.16-1.34.25-2.61.75-3.79,1.49-1.19.75-2.26,1.7-3.21,2.88-.95,1.17-1.74,2.43-2.36,3.78-.83,1.78-1.19,3.75-1.08,5.91.1,2.17.43,4.47.97,6.92.54,2.45,1.16,5.04,1.86,7.78.7,2.73,1.2,5.54,1.51,8.42.31,2.88.28,5.84-.08,8.89-.36,3.05-1.29,6.14-2.79,9.27-2.53,5.11-5.43,8.52-8.71,10.23-3.28,1.7-6.83,2.34-10.65,1.92-1.81-.21-3.39-.91-4.76-2.08-1.37-1.17-2.49-2.59-3.37-4.26-.88-1.67-1.51-3.52-1.9-5.54-.39-2.02-.52-3.99-.39-5.91.13-1.92.53-3.66,1.2-5.22.67-1.56,1.63-2.73,2.86-3.51.77-.5,1.63-.76,2.55-.8.93-.03,1.75.07,2.48.32.72.25,1.24.62,1.55,1.12.31.5.23,1.03-.23,1.6-1.08,1.42-1.87,3.07-2.36,4.95-.49,1.88-.69,3.75-.58,5.59.1,1.85.51,3.57,1.24,5.17.72,1.6,1.75,2.75,3.1,3.46.88.5,1.81.8,2.79.91.98.11,1.95-.02,2.9-.37.95-.35,1.9-1.03,2.83-2.02.93-.99,1.78-2.34,2.55-4.05,1.08-2.41,1.65-4.92,1.7-7.51.05-2.59-.14-5.22-.58-7.88-.44-2.66-.98-5.38-1.62-8.15-.65-2.77-1.1-5.54-1.35-8.31-.26-2.77-.21-5.56.15-8.36.36-2.8,1.34-5.63,2.94-8.47Z"/>
    <path class="cls-2" d="M641.59,303.2c.83,1.28,1.29,2.89,1.39,4.85.1,1.95-.16,4.1-.77,6.44-.62,2.34-1.55,4.76-2.79,7.24-1.24,2.49-2.76,4.86-4.57,7.14-1.76,2.27-3.57,4.17-5.46,5.7-1.89,1.53-3.68,2.63-5.38,3.3-1.7.67-3.28.91-4.72.69-1.44-.21-2.58-.96-3.41-2.24-.88-1.28-1.35-2.89-1.43-4.85-.08-1.95.19-4.1.81-6.44.62-2.34,1.53-4.76,2.75-7.24,1.21-2.48,2.72-4.86,4.53-7.14,1.75-2.34,3.57-4.28,5.46-5.81,1.88-1.53,3.69-2.63,5.42-3.3,1.73-.67,3.3-.89,4.72-.64,1.42.25,2.57,1.01,3.45,2.29ZM633.77,321.95c.98-1.77,1.81-3.51,2.48-5.22.67-1.7,1.16-3.3,1.47-4.79.31-1.49.43-2.79.35-3.89-.08-1.1-.35-1.9-.81-2.4-.52-.5-1.17-.64-1.97-.43-.8.21-1.68.75-2.63,1.6-.96.85-1.96,1.95-3.02,3.3-1.06,1.35-2.08,2.91-3.06,4.69-.98,1.78-1.79,3.52-2.44,5.22-.65,1.7-1.12,3.29-1.43,4.74-.31,1.46-.43,2.73-.35,3.83.08,1.1.35,1.9.81,2.4.52.5,1.17.64,1.97.43.8-.21,1.68-.73,2.63-1.54.95-.82,1.95-1.9,2.98-3.25,1.03-1.35,2.04-2.91,3.02-4.69Z"/>
    <path class="cls-2" d="M676.5,270.39c-.1.21-.77,1.51-2.01,3.89-1.24,2.38-2.77,5.33-4.61,8.84-1.83,3.52-3.83,7.39-6,11.61-2.17,4.23-4.23,8.26-6.19,12.09-1.96,3.83-3.69,7.24-5.19,10.23-1.5,2.98-2.48,5.04-2.94,6.18-.98,2.13-1.54,3.67-1.66,4.63-.13.96.01,1.51.43,1.65.51.21,1.39-.25,2.63-1.38,1.24-1.13,2.59-2.63,4.06-4.47,1.47-1.85,2.95-3.83,4.45-5.97,1.5-2.13,2.76-4.08,3.79-5.86.67-1.13,1.25-1.86,1.74-2.18.49-.32.85-.32,1.08,0,.23.32.32.84.27,1.54-.05.71-.26,1.49-.62,2.34-.36.71-.97,1.78-1.82,3.2-.85,1.42-1.86,2.98-3.02,4.69-1.16,1.7-2.43,3.48-3.79,5.33-1.37,1.85-2.76,3.55-4.18,5.11-1.42,1.56-2.8,2.93-4.14,4.1-1.34,1.17-2.58,1.9-3.72,2.18-1.5.43-2.67.32-3.52-.32-.85-.64-1.39-1.63-1.62-2.98-.23-1.35-.18-2.93.15-4.74.33-1.81.89-3.67,1.66-5.59.31-.71.92-2.01,1.82-3.89.9-1.88,2-4.12,3.29-6.71,1.29-2.59,2.71-5.43,4.26-8.52,1.55-3.09,3.12-6.19,4.72-9.32,1.6-3.12,3.16-6.18,4.68-9.16,1.52-2.98,2.89-5.65,4.1-7.99,1.21-2.34,2.22-4.28,3.02-5.81.8-1.53,1.28-2.43,1.43-2.72.62-1.07,1.37-1.93,2.24-2.61.88-.67,1.68-1.01,2.4-1.01h2.25c.72,0,1.13.36,1.24,1.07.1.71-.13,1.56-.7,2.56Z"/>
    <path class="cls-2" d="M674.56,304.37c-.21.36-.68,1.21-1.43,2.56-.75,1.35-1.6,2.97-2.55,4.85-.96,1.88-1.95,3.83-2.98,5.86-1.03,2.02-1.94,3.89-2.71,5.59-.98,2.13-1.52,3.67-1.63,4.63-.1.96.05,1.51.46,1.65.52.21,1.37-.23,2.55-1.33,1.19-1.1,2.5-2.56,3.95-4.37,1.44-1.81,2.9-3.78,4.37-5.91,1.47-2.13,2.75-4.08,3.83-5.86.93-1.85,1.78-3.46,2.55-4.85.77-1.38,1.29-2.33,1.55-2.82.62-1.07,1.37-1.92,2.25-2.56.88-.64,1.68-.96,2.4-.96h2.17c.72,0,1.15.34,1.28,1.01.13.68-.09,1.51-.66,2.5-.21.36-.69,1.21-1.43,2.56-.75,1.35-1.61,2.97-2.59,4.85-.98,1.88-1.99,3.83-3.02,5.86-1.03,2.02-1.91,3.89-2.63,5.59-.98,2.13-1.52,3.67-1.63,4.63-.1.96.03,1.51.39,1.65.51.21,1.39-.25,2.63-1.38,1.24-1.13,2.59-2.63,4.06-4.47,1.47-1.85,2.95-3.83,4.45-5.97,1.5-2.13,2.76-4.08,3.79-5.86.67-1.13,1.25-1.86,1.74-2.18.49-.32.85-.32,1.08,0,.23.32.32.84.27,1.54-.05.71-.26,1.49-.62,2.34-.36.71-.96,1.78-1.78,3.2-.83,1.42-1.82,2.98-2.98,4.69-1.16,1.7-2.44,3.48-3.83,5.33-1.39,1.85-2.8,3.55-4.22,5.11-1.42,1.56-2.8,2.93-4.14,4.1-1.34,1.17-2.58,1.9-3.72,2.18-1.24.35-2.26.32-3.06-.11-.8-.43-1.38-1.1-1.74-2.02-.36-.92-.53-2.04-.5-3.36.02-1.31.24-2.75.66-4.31-1.86,2.41-3.74,4.55-5.65,6.39-1.91,1.85-3.61,2.98-5.11,3.41-1.5.43-2.7.35-3.6-.21-.9-.57-1.5-1.47-1.78-2.72-.28-1.24-.26-2.79.08-4.63.34-1.85.99-3.87,1.97-6.07.62-1.42,1.43-3.18,2.44-5.27,1-2.09,2.02-4.15,3.06-6.18,1.03-2.02,1.97-3.85,2.83-5.49.85-1.63,1.43-2.7,1.74-3.2.62-1.07,1.37-1.92,2.25-2.56.88-.64,1.68-.96,2.4-.96h2.25c.72,0,1.13.34,1.24,1.01.1.68-.13,1.51-.7,2.5Z"/>
    <path class="cls-2" d="M720.7,304.37c-.21.36-.7,1.21-1.47,2.56-.77,1.35-1.64,2.97-2.59,4.85-.95,1.88-1.95,3.83-2.98,5.86-1.03,2.02-1.94,3.89-2.71,5.59-.98,2.13-1.52,3.67-1.63,4.63-.1.96.05,1.51.47,1.65.51.21,1.38-.25,2.59-1.38,1.21-1.13,2.55-2.63,4.02-4.47,1.47-1.85,2.95-3.83,4.45-5.97,1.5-2.13,2.79-4.08,3.87-5.86.67-1.13,1.25-1.86,1.74-2.18.49-.32.85-.32,1.08,0,.23.32.32.84.27,1.54-.05.71-.29,1.49-.7,2.34-.36.71-.96,1.78-1.78,3.2-.83,1.42-1.82,2.98-2.98,4.69-1.16,1.7-2.44,3.48-3.83,5.33-1.39,1.85-2.8,3.55-4.22,5.11-1.42,1.56-2.8,2.93-4.14,4.1-1.34,1.17-2.58,1.9-3.72,2.18-1.24.35-2.25.34-3.02-.05-.77-.39-1.34-1.05-1.7-1.97-.36-.92-.53-2.04-.5-3.36.02-1.31.24-2.75.66-4.31-1.86,2.34-3.74,4.44-5.65,6.28-1.91,1.85-3.61,2.98-5.11,3.41-1.55.43-2.74.32-3.56-.32-.83-.64-1.35-1.63-1.59-2.98-.23-1.35-.19-2.93.12-4.74.31-1.81.85-3.67,1.63-5.59.36-.85,1.12-2.47,2.28-4.85,1.16-2.38,2.54-5.11,4.14-8.2,1.6-3.09,3.3-6.39,5.11-9.91,1.81-3.52,3.54-6.87,5.19-10.07-3.51.21-6.57.39-9.17.53-2.61.14-4.32.21-5.15.21-1.34.07-2.09-.39-2.25-1.38-.15-.99.05-2.08.62-3.25.57-1.17,1.41-2.27,2.52-3.3,1.11-1.03,2.26-1.54,3.44-1.54s3.17-.02,5.81-.05c2.63-.03,5.6-.09,8.9-.16l3.33-6.18c.57-.99,1.29-1.83,2.17-2.5.88-.67,1.68-1.01,2.4-1.01h2.25c.72,0,1.15.34,1.28,1.01.13.68-.09,1.51-.66,2.5-.1.14-.45.76-1.04,1.86-.59,1.1-1.33,2.47-2.21,4.1l2.94-.32c1.03-.07,1.64.21,1.82.85.18.64.06,1.4-.35,2.29-.41.89-1.04,1.74-1.9,2.56-.85.82-1.79,1.33-2.83,1.54l-3.64.64c-1.6,3.05-3.32,6.32-5.15,9.8-1.83,3.48-3.56,6.78-5.19,9.91-1.63,3.13-3.06,5.93-4.3,8.41-1.24,2.49-2.09,4.23-2.55,5.22-.93,2.13-1.45,3.67-1.55,4.63-.1.96.02,1.51.39,1.65.52.21,1.38-.25,2.59-1.38,1.21-1.13,2.55-2.61,4.02-4.42,1.47-1.81,2.94-3.78,4.41-5.91,1.47-2.13,2.72-4.08,3.75-5.86.93-1.85,1.78-3.44,2.55-4.79.77-1.35,1.29-2.27,1.55-2.77.57-1.07,1.29-1.92,2.17-2.56.88-.64,1.68-.96,2.4-.96h2.25c.72,0,1.15.34,1.28,1.01.13.68-.09,1.51-.66,2.5ZM730.22,287.43c0,1.49-.38,2.75-1.12,3.78-.75,1.03-1.64,1.54-2.67,1.54s-1.94-.51-2.71-1.54c-.77-1.03-1.16-2.29-1.16-3.78s.39-2.64,1.16-3.67c.77-1.03,1.68-1.54,2.71-1.54s1.92.52,2.67,1.54c.75,1.03,1.12,2.26,1.12,3.67Z"/>
    <path class="cls-2" d="M744.54,303.2c.83,1.28,1.29,2.89,1.39,4.85.1,1.95-.16,4.1-.77,6.44-.62,2.34-1.55,4.76-2.79,7.24-1.24,2.49-2.76,4.86-4.57,7.14-1.76,2.27-3.58,4.17-5.46,5.7-1.89,1.53-3.68,2.63-5.38,3.3-1.7.67-3.28.91-4.72.69-1.45-.21-2.58-.96-3.41-2.24-.88-1.28-1.35-2.89-1.43-4.85-.08-1.95.19-4.1.81-6.44.62-2.34,1.53-4.76,2.75-7.24,1.21-2.48,2.72-4.86,4.53-7.14,1.75-2.34,3.57-4.28,5.46-5.81,1.88-1.53,3.69-2.63,5.42-3.3,1.73-.67,3.3-.89,4.72-.64,1.42.25,2.57,1.01,3.44,2.29ZM736.72,321.95c.98-1.77,1.81-3.51,2.48-5.22.67-1.7,1.16-3.3,1.47-4.79.31-1.49.43-2.79.35-3.89-.08-1.1-.35-1.9-.81-2.4-.52-.5-1.17-.64-1.98-.43-.8.21-1.68.75-2.63,1.6-.95.85-1.96,1.95-3.02,3.3-1.06,1.35-2.08,2.91-3.06,4.69-.98,1.78-1.79,3.52-2.44,5.22-.65,1.7-1.12,3.29-1.43,4.74-.31,1.46-.43,2.73-.35,3.83.08,1.1.35,1.9.81,2.4.51.5,1.17.64,1.97.43.8-.21,1.68-.73,2.63-1.54.95-.82,1.95-1.9,2.98-3.25,1.03-1.35,2.04-2.91,3.02-4.69Z"/>
    <path class="cls-2" d="M770.78,301.07c1.34-.28,2.45-.21,3.33.21.88.43,1.34,1.33,1.39,2.72.05,1.38-.4,3.34-1.35,5.86-.96,2.52-2.59,5.77-4.92,9.75-1.19,1.92-2.05,3.52-2.59,4.79s-.9,2.29-1.08,3.04c-.18.75-.22,1.26-.12,1.54.1.28.26.46.47.53.52.21,1.38-.25,2.59-1.38,1.21-1.13,2.55-2.63,4.02-4.47,1.47-1.85,2.95-3.83,4.45-5.97,1.5-2.13,2.76-4.08,3.79-5.86.72-1.13,1.33-1.86,1.82-2.18.49-.32.85-.32,1.08,0,.23.32.32.84.27,1.54-.05.71-.29,1.49-.7,2.34-.36.71-.97,1.78-1.82,3.2-.85,1.42-1.86,2.98-3.02,4.69-1.16,1.7-2.43,3.48-3.79,5.33-1.37,1.85-2.75,3.55-4.14,5.11-1.39,1.56-2.77,2.93-4.14,4.1-1.37,1.17-2.59,1.9-3.68,2.18-1.55.43-2.81.28-3.79-.43-.98-.71-1.56-1.86-1.74-3.46-.18-1.6.08-3.64.77-6.13.7-2.48,1.95-5.33,3.75-8.52,2.17-3.76,3.75-6.51,4.76-8.26,1-1.74,1.22-2.79.66-3.14-.47-.35-1.43.14-2.9,1.49-1.47,1.35-3.13,3.14-4.99,5.38-1.86,2.24-3.73,4.72-5.61,7.46-1.88,2.73-3.44,5.31-4.68,7.72-.11.28-.21.46-.31.53l-2.01,3.94c-.62,1.06-1.37,1.94-2.24,2.61-.88.68-1.68,1.01-2.4,1.01h-2.24c-.72,0-1.13-.35-1.24-1.07-.1-.71.13-1.56.7-2.56l15.56-30.36c.57-1.07,1.29-1.92,2.17-2.56.88-.64,1.68-.96,2.4-.96h2.24c.72,0,1.15.34,1.28,1.01.13.68-.09,1.51-.66,2.5l-2.79,5.43c1.96-2.27,3.91-4.21,5.84-5.81,1.94-1.6,3.81-2.57,5.61-2.93Z"/>
    <path class="cls-2" d="M782.47,308.31c1.29-2.27,3.07-4.05,5.34-5.33,2.27-1.28,4.9-1.92,7.9-1.92,1.44,0,2.58.32,3.41.96.83.64.85,1.92.08,3.83-.46,1.14-1.17,2.34-2.13,3.62-.96,1.28-2.03,2.2-3.21,2.77-.57.21-1.19.37-1.86.48-.67.11-1.26.09-1.78-.05-.52-.14-.88-.39-1.08-.75-.21-.35-.13-.85.23-1.49.21-.35.47-.76.77-1.22.31-.46.59-.94.85-1.44.26-.5.45-.94.58-1.33.13-.39.12-.73-.04-1.01-.72-.14-1.6.11-2.63.75-1.03.64-1.83,1.56-2.4,2.77-.52,1.07-.61,2.01-.27,2.82.34.82.86,1.58,1.59,2.29.72.71,1.54,1.47,2.44,2.29.9.82,1.67,1.76,2.28,2.82s.99,2.34,1.12,3.83c.13,1.49-.22,3.3-1.05,5.43-.67,1.7-1.55,3.21-2.63,4.53-1.08,1.32-2.27,2.38-3.56,3.2-1.29.82-2.67,1.38-4.14,1.7-1.47.32-2.93.41-4.37.27-2.06-.21-3.55-.99-4.45-2.34-.9-1.35-1.37-2.82-1.39-4.42-.03-1.6.29-3.14.93-4.63.64-1.49,1.46-2.56,2.44-3.2.52-.35,1.17-.53,1.97-.53s1.51.11,2.13.32c.62.21,1.08.53,1.39.96.31.43.23.92-.23,1.49-.36.5-.77,1.12-1.24,1.86-.47.75-.84,1.53-1.12,2.34-.29.82-.43,1.56-.43,2.24s.28,1.15.85,1.44c.57.36,1.24.5,2.01.43.77-.07,1.55-.34,2.32-.8.77-.46,1.5-1.1,2.17-1.92.67-.82,1.18-1.86,1.55-3.14.36-1.28.34-2.38-.08-3.3-.41-.92-.97-1.79-1.67-2.61-.7-.82-1.44-1.63-2.24-2.45-.8-.82-1.42-1.74-1.86-2.77-.44-1.03-.58-2.25-.43-3.67.16-1.42.8-3.12,1.94-5.11Z"/>
  </g>
</svg>