<?xml version="1.0" encoding="UTF-8"?>
<svg id="Layer_1" data-name="Layer 1" xmlns="http://www.w3.org/2000/svg" viewBox="0 0 427.1 135.64">
  <defs>
    <style>
      .cls-1 {
        fill: #29a9e0;
      }
    </style>
  </defs>
  <path d="M13.5,56.25v9.6h.2c.7-1.6,1.6-3.1,2.7-4.5,1.1-1.4,2.4-2.5,3.9-3.5s3-1.7,4.7-2.3c1.7-.5,3.4-.8,5.2-.8s2,.2,3.1.5v13.2c-.7,0-1.5-.3-2.4-.4h-2.6c-2.6,0-4.8.4-6.6,1.3-1.8.9-3.3,2.1-4.4,3.6s-1.9,3.3-2.4,5.3-.7,4.2-.7,6.5v23.3H0v-51.8h13.5Z"/>
  <path d="M51.3,108.25c-1.7.7-3.6,1.1-5.8,1.1s-3.3-.2-4.8-.7-2.8-1.2-3.9-2.2c-1.1-1-1.9-2.1-2.6-3.5-.6-1.4-.9-3-.9-4.8s.2-2.6.7-3.7,1.1-2.1,1.9-3c.8-.9,1.7-1.7,2.7-2.4s2.1-1.3,3.2-1.8c-1-1.2-1.9-2.5-2.6-3.7-.7-1.2-1-2.7-1-4.3s.3-2.5.8-3.5c.5-1.1,1.3-2,2.2-2.7.9-.8,2-1.3,3.1-1.7,1.2-.4,2.4-.6,3.7-.6s2.8.2,4,.6,2.3,1,3.3,1.7c.9.8,1.7,1.7,2.2,2.8s.8,2.4.8,3.9c0,2.2-.6,4.1-1.9,5.6-1.3,1.5-2.9,2.8-4.8,3.8l4.8,5.9c.4-.7.7-1.4.9-2.2s.4-1.5.5-2.3h6.5c-.2,1.7-.6,3.3-1.2,4.9-.6,1.6-1.4,3-2.5,4.4l7.6,8.9h-9.2l-3-3.7c-1.4,1.3-3,2.5-4.7,3.2ZM43.8,93.05c-.6.4-1.2.8-1.7,1.4-.5.5-.9,1.1-1.2,1.7s-.4,1.3-.4,2.1,0,1.3.4,1.9c.3.6.7,1.1,1.2,1.6.5.4,1.1.8,1.7,1.1.7.3,1.3.4,2,.4,1.3,0,2.5-.3,3.5-.9s1.9-1.4,2.8-2.4l-6.4-7.9c-.6.3-1.3.7-1.9,1h0ZM50.7,76.75c-.7-.7-1.5-1.1-2.4-1.1s-1.7.3-2.4.9-1,1.4-1,2.4.3,2.2.9,3c.6.8,1.3,1.7,2,2.6,1.1-.7,2-1.4,2.7-2.2.8-.8,1.1-1.8,1.1-3.2.2-.9-.2-1.7-.9-2.4h0Z"/>
  <path d="M113.7,108.05l-9.2-34.8h-.2l-8.9,34.8h-14.7l-16.4-51.8h15l9.5,35.2h.2l8.6-35.2h13.8l8.8,35.1h.2l9.5-35.1h14.6l-16.2,51.8h-14.6Z"/>
  <path d="M193.3,50.65h-14.6c-.5,0-1-.4-1-1v-14.6c0-.5.4-1,1-1h14.6c.5,0,1,.4,1,1v14.6c0,.6-.4,1-1,1ZM193.2,56.25v51.8h-14.2v-51.8h14.2Z"/>
  <path d="M217.9,56.25v7.2h.3c1.8-3,4.1-5.2,7-6.6,2.9-1.4,5.8-2.1,8.8-2.1s6.9.5,9.4,1.6c2.4,1,4.4,2.5,5.8,4.3s2.4,4.1,3,6.7.8,5.6.8,8.8v31.9h-14.2v-29.3c0-4.3-.7-7.5-2-9.6s-3.7-3.2-7.1-3.2-6.7,1.2-8.4,3.5-2.6,6.1-2.6,11.4v27.2h-14.2v-51.8h13.4Z"/>
  <path d="M288.5,65.55c-2.3,0-4.2.5-5.7,1.5s-2.8,2.4-3.8,4-1.6,3.4-2,5.4-.6,3.9-.6,5.9.2,3.8.6,5.7,1.1,3.7,1.9,5.3c.9,1.6,2.1,2.9,3.7,3.9,1.5,1,3.4,1.5,5.6,1.5,3.4,0,6-1,7.9-2.9,1.8-1.9,3-4.5,3.5-7.7h13.7c-.9,6.9-3.6,12.1-8,15.7s-10.1,5.4-16.9,5.4-7.4-.7-10.7-2c-3.2-1.3-6-3.1-8.3-5.5-2.3-2.3-4-5.1-5.3-8.4-1.3-3.2-1.9-6.8-1.9-10.7s.6-7.7,1.8-11.2c1.2-3.4,2.9-6.4,5.2-8.9,2.3-2.5,5-4.5,8.3-5.9s7-2.1,11.2-2.1,6,.4,8.9,1.2c2.8.8,5.4,2,7.6,3.7,2.2,1.6,4.1,3.7,5.5,6.1,1.4,2.4,2.2,5.3,2.4,8.7h-14.1c-.9-5.7-4.4-8.7-10.5-8.7h0Z"/>
  <path d="M333.2,96.95v11.1h-11.3v-11.1h11.3Z"/>
  <path d="M142.7,100.95v7.4c0,1.1-.2,2.1-.6,3s-.9,1.7-1.6,2.4-1.5,1.2-2.4,1.6-1.9.7-2.9.9v-3.4c.5,0,.9-.3,1.4-.6.4-.3.8-.6,1.1-1s.6-.8.7-1.3.2-1,.2-1.5h-3.4v-7.4h7.5v-.1Z"/>
  <path d="M304,31.15c20.7-4.4,43.2,8.7,47.6,31.9,1.7,10.8,1.8,23.4,9,32.1,5.8,7.1,15.5,11,25.8,11.8-19.8,7.4-40.2-7.4-42.5-30l-1.2-8.1c-1.6-21.5-19.5-33.9-38.7-37.7h0Z"/>
  <path d="M324.3,16.05c20.7-4.4,43.2,8.7,47.6,31.9l.7,4.4c1.2,23.3,10.2,37.5,34.1,39.5-19.8,7.4-40.2-7.4-42.5-30-.4-2.5-1.4-9.4-1.6-11.8-3.6-19.7-20.2-30.3-38.3-34h0Z"/>
  <path class="cls-1" d="M344.7.85c20.7-4.4,43.2,8.7,47.6,31.9,1.7,10.8,1.8,23.4,9,32.1,5.8,7.1,15.5,11,25.8,11.8-19.8,7.4-40.2-7.4-42.5-30l-1.2-8.1c-1.7-21.4-19.5-33.8-38.7-37.7h0Z"/>
  <g>
    <path d="M231.97,125.57v2.51h5.59v2.87h-5.59v4.32h-3.73v-12.56h9.74v2.87h-6.02Z"/>
    <path d="M238.84,135.34v-9.47h2.81v9.47h-2.81Z"/>
    <path d="M247.67,132.77h-1.49v2.55h-2.81v-9.47h4.42c2.54,0,4,1.22,4,3.36,0,1.41-.57,2.43-1.59,3.01l1.92,3.09h-3.19l-1.26-2.55ZM247.79,130.61c.84,0,1.32-.46,1.32-1.31s-.49-1.28-1.32-1.28h-1.61v2.59h1.61Z"/>
    <path d="M260.65,127l-1.04,2.16c-.97-.55-2.35-1.05-3.15-1.05-.47,0-.78.16-.78.51,0,1.39,4.94.57,4.94,3.99,0,2.01-1.78,2.97-3.9,2.97-1.61,0-3.36-.57-4.55-1.5l1.05-2.13c.97.82,2.55,1.45,3.53,1.45.59,0,.97-.2.97-.63,0-1.43-4.94-.53-4.94-3.86,0-1.82,1.55-2.99,3.92-2.99,1.45,0,2.93.43,3.96,1.09Z"/>
    <path d="M266.56,128.22v7.23h-2.82v-7.23h-2.74v-2.24h8.32v2.24h-2.76Z"/>
    <path d="M282.27,124.99l-2.16,2.55c-.79-1.01-1.96-1.67-3-1.67-1.71,0-3,1.39-3,3.24s1.3,3.26,3,3.26c.97,0,2.14-.58,3-1.46l2.16,2.3c-1.37,1.48-3.44,2.43-5.34,2.43-3.83,0-6.66-2.77-6.66-6.49s2.88-6.39,6.78-6.39c1.91,0,3.94.86,5.22,2.23Z"/>
    <path d="M285.41,133.9l-.57,1.51h-2.89l4.04-9.47h2.89l3.9,9.47h-3l-.55-1.51h-3.82ZM287.35,128.75l-1.16,3.09h2.3l-1.13-3.09Z"/>
    <path d="M300.14,132.96v2.35h-6.78v-9.47h2.81v7.12h3.97Z"/>
    <path d="M307.62,132.97v2.35h-6.78v-9.47h2.81v7.12h3.97Z"/>
    <path d="M222.48,132.81h-4.68l-.86,2.48h-1.48l3.88-11.09h1.62l3.87,11.09h-1.48l-.86-2.48ZM222.08,131.62l-1.94-5.64-1.94,5.64h3.88Z"/>
    <g>
      <path d="M309.79,126.83c.47-.87,1.12-1.55,1.93-2.04.82-.49,1.72-.74,2.72-.74,1.17,0,2.19.29,3.07.88.87.59,1.51,1.42,1.91,2.5h-1.68c-.3-.67-.73-1.19-1.29-1.55-.56-.36-1.23-.54-2.01-.54s-1.42.18-2.02.54c-.6.36-1.06.88-1.4,1.54-.34.67-.51,1.45-.51,2.35s.17,1.66.51,2.33c.34.67.81,1.18,1.4,1.54.6.36,1.27.54,2.02.54s1.45-.18,2.01-.54.99-.87,1.29-1.54h1.68c-.4,1.07-1.04,1.89-1.91,2.47-.87.58-1.9.87-3.07.87-1,0-1.9-.24-2.72-.73-.82-.49-1.46-1.16-1.93-2.02-.47-.86-.71-1.84-.71-2.93s.24-2.07.71-2.94Z"/>
      <path d="M323.64,134.74c-.82-.49-1.47-1.16-1.95-2.03-.48-.87-.72-1.85-.72-2.94s.24-2.07.72-2.94c.48-.87,1.13-1.55,1.95-2.03.82-.49,1.73-.73,2.73-.73s1.92.24,2.74.73c.82.49,1.47,1.16,1.94,2.03.47.86.71,1.85.71,2.95s-.24,2.08-.71,2.95c-.47.86-1.12,1.54-1.94,2.03-.82.49-1.74.73-2.74.73s-1.91-.24-2.73-.73ZM328.4,133.66c.6-.36,1.07-.88,1.42-1.55s.52-1.45.52-2.34-.17-1.68-.52-2.35c-.34-.67-.81-1.18-1.41-1.54-.6-.36-1.27-.54-2.03-.54s-1.44.18-2.03.54c-.6.36-1.07.88-1.41,1.54-.34.67-.52,1.45-.52,2.35s.17,1.66.52,2.34c.34.67.82,1.19,1.42,1.55.6.36,1.28.54,2.03.54s1.43-.18,2.03-.54Z"/>
      <path d="M344.51,124.28v11.08h-1.4v-8.26l-3.54,8.26h-.99l-3.56-8.28v8.28h-1.4v-11.08h1.51l3.95,9.16,3.94-9.16h1.5Z"/>
      <path d="M353.15,129.78c-.61.61-1.54.92-2.8.92h-2.07v4.66h-1.4v-11.16h3.47c1.21,0,2.13.3,2.77.91.63.61.95,1.39.95,2.35s-.31,1.7-.92,2.31ZM352.08,128.97c.37-.35.55-.85.55-1.5,0-1.38-.76-2.07-2.28-2.07h-2.07v4.1h2.07c.78,0,1.36-.18,1.73-.53Z"/>
      <path d="M362.16,132.87h-4.68l-.86,2.48h-1.48l3.88-11.09h1.62l3.87,11.09h-1.48l-.86-2.48ZM361.75,131.69l-1.94-5.64-1.94,5.64h3.88Z"/>
      <path d="M374.64,135.35h-1.4l-5.64-8.88v8.88h-1.4v-11.17h1.4l5.64,8.87v-8.87h1.4v11.17Z"/>
      <path d="M384.55,124.2l-3.5,6.95v4.21h-1.4v-4.21l-3.51-6.95h1.56l2.65,5.65,2.65-5.65h1.56Z"/>
    </g>
  </g>
</svg>