<?xml version="1.0" encoding="UTF-8"?>
<svg id="Layer_1" data-name="Layer 1" xmlns="http://www.w3.org/2000/svg" viewBox="0 0 1606.92 295.61">
  <defs>
    <style>
      .cls-1 {
        fill: #010101;
      }

      .cls-2 {
        fill: #fff;
      }
    </style>
  </defs>
  <text/>
  <g>
    <rect class="cls-2" y="57.94" width="397.72" height="6.06"/>
    <rect class="cls-2" y="66.91" width="397.72" height="6.06"/>
    <rect class="cls-2" y="76.36" width="397.72" height="6.06"/>
    <rect class="cls-2" y="85.57" width="397.72" height="6.06"/>
    <rect class="cls-2" y="112.23" width="397.72" height="6.06"/>
    <rect class="cls-2" y="127.26" width="397.72" height="6.06"/>
    <rect class="cls-2" y="97.21" width="397.72" height="6.06"/>
    <polygon class="cls-1" points=".33 145.93 198.94 23.27 397.4 145.93 .33 145.93"/>
    <polygon class="cls-2" points="8.46 145.93 198.94 30.79 389.26 145.93 8.46 145.93"/>
    <rect class="cls-1" y="145.93" width="397.72" height="56.72"/>
    <rect class="cls-2" x="4.39" y="152.72" width="388.94" height="43.15"/>
  </g>
  <g>
    <path class="cls-2" d="M1078.87,238.11v8.62h19.2v9.85h-19.2v14.83h-12.8v-43.14h33.48v9.85h-20.68Z"/>
    <path class="cls-2" d="M1102.47,271.66v-32.54h9.65v32.54h-9.65Z"/>
    <path class="cls-2" d="M1132.8,262.84h-5.11v8.77h-9.65v-32.54h15.18c8.73,0,13.74,4.18,13.74,11.56,0,4.83-1.95,8.35-5.48,10.35l6.59,10.63h-10.95l-4.32-8.77ZM1133.21,255.41c2.88,0,4.55-1.58,4.55-4.5s-1.67-4.41-4.55-4.41h-5.52v8.91h5.52Z"/>
    <path class="cls-2" d="M1177.4,243.02l-3.57,7.43c-3.34-1.9-8.08-3.62-10.82-3.62-1.62,0-2.69.56-2.69,1.76,0,4.78,16.99,1.95,16.99,13.69,0,6.92-6.13,10.21-13.41,10.21-5.52,0-11.56-1.95-15.64-5.15l3.62-7.33c3.34,2.83,8.77,4.97,12.12,4.97,2.04,0,3.34-.7,3.34-2.18,0-4.92-16.99-1.81-16.99-13.28,0-6.27,5.34-10.26,13.46-10.26,4.97,0,10.07,1.49,13.6,3.76Z"/>
    <path class="cls-2" d="M1197.72,247.21v24.83h-9.7v-24.83h-9.42v-7.71h28.59v7.71h-9.47Z"/>
    <path class="cls-2" d="M1251.68,236.11l-7.42,8.78c-2.72-3.46-6.74-5.75-10.32-5.75-5.87,0-10.32,4.76-10.32,11.12s4.45,11.19,10.32,11.19c3.34,0,7.35-1.98,10.32-5.01l7.42,7.91c-4.7,5.07-11.8,8.34-18.36,8.34-13.16,0-22.87-9.52-22.87-22.31s9.89-21.94,23.3-21.94c6.55,0,13.53,2.97,17.92,7.66Z"/>
    <path class="cls-2" d="M1262.45,266.71l-1.95,5.2h-9.93l13.88-32.54h9.93l13.41,32.54h-10.3l-1.9-5.2h-13.14ZM1269.14,249.03l-3.99,10.63h7.89l-3.9-10.63Z"/>
    <path class="cls-2" d="M1313.08,263.5v8.08h-23.3v-32.54h9.65v24.46h13.65Z"/>
    <path class="cls-2" d="M1338.78,263.54v8.08h-23.3v-32.54h9.65v24.46h13.65Z"/>
    <path class="cls-2" d="M1046.26,262.97h-16.1l-2.96,8.52h-5.08l13.34-38.11h5.56l13.29,38.11h-5.08l-2.97-8.52ZM1044.88,258.9l-6.67-19.36-6.67,19.36h13.34Z"/>
    <g>
      <path class="cls-2" d="M1346.23,242.43c1.62-2.99,3.84-5.33,6.65-7.01,2.81-1.69,5.92-2.53,9.34-2.53,4.02,0,7.54,1.01,10.54,3.02,3,2.02,5.19,4.88,6.57,8.58h-5.77c-1.02-2.31-2.5-4.09-4.42-5.33-1.92-1.25-4.23-1.87-6.91-1.87s-4.89.62-6.94,1.87c-2.05,1.25-3.65,3.02-4.82,5.31-1.17,2.29-1.75,4.98-1.75,8.06s.58,5.71,1.75,8c1.17,2.29,2.77,4.06,4.82,5.31,2.05,1.25,4.36,1.87,6.94,1.87s4.99-.61,6.91-1.84,3.4-3,4.42-5.31h5.77c-1.38,3.67-3.57,6.5-6.57,8.5-3,2-6.51,3-10.54,3-3.42,0-6.54-.83-9.34-2.5-2.81-1.67-5.02-3.99-6.65-6.96-1.62-2.97-2.44-6.33-2.44-10.06s.81-7.1,2.44-10.09Z"/>
      <path class="cls-2" d="M1393.83,269.6c-2.82-1.67-5.06-4-6.7-6.99-1.64-2.99-2.46-6.35-2.46-10.09s.82-7.1,2.46-10.09c1.64-2.99,3.87-5.32,6.7-6.98,2.82-1.67,5.95-2.5,9.37-2.5s6.6.83,9.42,2.5c2.82,1.67,5.05,3.99,6.67,6.96,1.62,2.97,2.44,6.34,2.44,10.12s-.81,7.15-2.44,10.12c-1.62,2.97-3.85,5.29-6.67,6.96-2.82,1.67-5.97,2.5-9.42,2.5s-6.55-.83-9.37-2.5ZM1410.16,265.89c2.07-1.25,3.69-3.03,4.87-5.33s1.77-4.99,1.77-8.03-.59-5.77-1.77-8.06c-1.18-2.29-2.8-4.06-4.84-5.31-2.05-1.25-4.38-1.87-6.99-1.87s-4.94.62-6.99,1.87c-2.05,1.25-3.66,3.02-4.84,5.31-1.18,2.29-1.77,4.98-1.77,8.06s.59,5.72,1.77,8.03c1.18,2.31,2.81,4.09,4.87,5.33,2.06,1.25,4.39,1.87,6.96,1.87s4.9-.62,6.96-1.87Z"/>
      <path class="cls-2" d="M1465.52,233.66v38.06h-4.82v-28.38l-12.18,28.38h-3.39l-12.23-28.44v28.44h-4.82v-38.06h5.19l13.55,31.46,13.55-31.46h5.14Z"/>
      <path class="cls-2" d="M1495.19,252.55c-2.1,2.11-5.3,3.16-9.61,3.16h-7.09v16h-4.82v-38.33h11.91c4.16,0,7.33,1.04,9.5,3.13,2.17,2.09,3.26,4.79,3.26,8.08s-1.05,5.84-3.15,7.95ZM1491.51,249.78c1.27-1.21,1.91-2.93,1.91-5.17,0-4.73-2.61-7.09-7.84-7.09h-7.09v14.08h7.09c2.68,0,4.66-.6,5.93-1.81Z"/>
      <path class="cls-2" d="M1526.14,263.2h-16.1l-2.96,8.53h-5.08l13.34-38.12h5.56l13.29,38.12h-5.08l-2.97-8.53ZM1524.76,259.13l-6.67-19.36-6.67,19.36h13.34Z"/>
      <path class="cls-2" d="M1569.03,271.72h-4.82l-19.38-30.52v30.52h-4.82v-38.39h4.82l19.38,30.47v-30.47h4.82v38.39Z"/>
      <path class="cls-2" d="M1603.07,233.39l-12.02,23.87v14.46h-4.82v-14.46l-12.07-23.87h5.35l9.11,19.42,9.11-19.42h5.35Z"/>
    </g>
  </g>
  <text/>
  <g>
    <path class="cls-2" d="M483.97,45.97l-13.98,4.68c-1.88-5.55-5.86-8.32-11.94-8.32-6.49,0-9.74,2.11-9.74,6.32,0,1.68.61,3.1,1.82,4.26,1.21,1.17,3.96,2.18,8.23,3.04,7.15,1.44,12.38,2.9,15.7,4.37,3.32,1.47,6.11,3.84,8.39,7.12,2.28,3.27,3.41,6.93,3.41,10.97,0,6.34-2.44,11.82-7.32,16.44-4.88,4.62-12.11,6.94-21.69,6.94-7.19,0-13.31-1.64-18.35-4.91-5.05-3.27-8.38-8.13-9.98-14.57l15.21-3.44c1.71,6.54,6.46,9.81,14.26,9.81,3.76,0,6.56-.73,8.41-2.18,1.85-1.46,2.77-3.19,2.77-5.21s-.84-3.65-2.51-4.78c-1.68-1.13-4.91-2.19-9.7-3.19-8.93-1.85-15.29-4.38-19.09-7.58-3.8-3.2-5.7-7.89-5.7-14.05s2.27-11.49,6.8-15.77,10.69-6.42,18.45-6.42c13.76,0,22.6,5.5,26.54,16.49Z"/>
    <path class="cls-2" d="M546.71,43.92h-33.4v14.39h26.26v13.21h-26.26v15.31h33.4v13.87h-50.1V30.55h50.1v13.36Z"/>
    <path class="cls-2" d="M573.22,86.82h27.9v13.87h-44.55V30.55h16.65v56.27Z"/>
    <path class="cls-2" d="M659.65,43.92h-33.4v14.39h26.26v13.21h-26.26v15.31h33.4v13.87h-50.1V30.55h50.1v13.36Z"/>
    <path class="cls-2" d="M726.09,56.66l-17.21,1.08c-.24-9.9-4.1-14.85-11.59-14.85-8.58,0-12.87,7.62-12.87,22.87,0,8.8,1.17,14.77,3.5,17.91,2.33,3.13,5.6,4.7,9.78,4.7,6.8,0,10.95-4.42,12.46-13.26l15.93.98c-1.03,8.39-4.15,14.77-9.38,19.14-5.22,4.37-11.62,6.55-19.19,6.55-9.28,0-16.83-3.2-22.63-9.61-5.81-6.41-8.71-15.26-8.71-26.57,0-10.58,2.81-19.25,8.43-26,5.62-6.75,13.29-10.12,23.02-10.12,16.85,0,26.34,9.06,28.47,27.18Z"/>
    <path class="cls-2" d="M779.99,30.55v13.87h-17.37v56.27h-16.65v-56.27h-17.47v-13.87h51.49Z"/>
    <path class="cls-2" d="M863.44,43.92h-33.4v14.39h26.26v13.21h-26.26v15.31h33.4v13.87h-50.1V30.55h50.1v13.36Z"/>
    <path class="cls-2" d="M927.26,30.55v70.14h-14.02l-27.45-47.38c.03,1.2.07,1.99.1,2.36.14,1.2.21,2.21.21,3.03v41.98h-12.79V30.55h17.71l23.86,41.36c-.21-2.05-.31-3.61-.31-4.68V30.55h12.69Z"/>
    <path class="cls-2" d="M993.49,30.55l-21.19,70.14h-17.66l-21.07-70.14h17.49l14.03,50.15,14.61-50.15h13.78Z"/>
    <path class="cls-2" d="M1016.2,30.55v70.14h-16.39V30.55h16.39Z"/>
    <path class="cls-2" d="M1046.83,72.9v27.8h-16.54V30.55h30.83c5.69,0,10.25.66,13.69,1.98,3.44,1.32,6.29,3.74,8.55,7.27s3.39,7.45,3.39,11.76c0,8.42-4.06,14.46-12.18,18.13l12.95,31.01h-18.15l-10.77-27.8h-11.77ZM1046.83,43.04v17.88h10.07c3.29,0,5.68-.23,7.17-.69,1.49-.46,2.82-1.49,3.98-3.08,1.16-1.59,1.75-3.42,1.75-5.47s-.58-3.7-1.75-5.24c-1.17-1.54-2.43-2.49-3.8-2.85-1.37-.36-3.94-.54-7.71-.54h-9.71Z"/>
    <path class="cls-2" d="M1124.39,101.77c-9.45,0-16.75-3.55-21.92-10.64s-7.75-15.67-7.75-25.74,2.62-18.79,7.86-25.64c5.24-6.85,12.7-10.28,22.38-10.28s17.17,3.66,22.15,10.97c4.98,7.31,7.47,15.68,7.47,25.1,0,10.17-2.57,18.75-7.7,25.74-5.13,6.99-12.63,10.48-22.49,10.48ZM1124.86,42.89c-8.62,0-12.92,7.57-12.92,22.71s4.31,22.76,12.92,22.76,12.51-7.57,12.51-22.71-4.17-22.76-12.51-22.76Z"/>
    <path class="cls-2" d="M1219.28,30.55v70.14h-14.02l-27.45-47.38c.03,1.2.07,1.99.1,2.36.14,1.2.21,2.21.21,3.03v41.98h-12.79V30.55h17.71l23.86,41.36c-.21-2.05-.31-3.61-.31-4.68V30.55h12.69Z"/>
    <path class="cls-2" d="M1264.43,100.69l-17.31-57.19v57.19h-13.77V30.55h25.58l12.31,41.98,12.95-41.98h25.67v70.14h-16.55v-57.19l-17.64,57.19h-11.25Z"/>
    <path class="cls-2" d="M1373.94,43.92h-33.4v14.39h26.26v13.21h-26.26v15.31h33.4v13.87h-50.1V30.55h50.1v13.36Z"/>
    <path class="cls-2" d="M1437.76,30.55v70.14h-14.02l-27.45-47.38c.03,1.2.07,1.99.1,2.36.14,1.2.21,2.21.21,3.03v41.98h-12.79V30.55h17.71l23.86,41.36c-.21-2.05-.31-3.61-.31-4.68V30.55h12.69Z"/>
    <path class="cls-2" d="M1496.29,30.55v13.87h-17.37v56.27h-16.65v-56.27h-17.47v-13.87h51.49Z"/>
    <path class="cls-2" d="M1532.86,30.55l21.96,70.14h-17.66l-4.32-14.44h-22.68l-4.4,14.44h-14.41l22.48-70.14h19.02ZM1514.1,73.31h14.86l-7.37-24.61-7.5,24.61Z"/>
    <path class="cls-2" d="M1579.02,86.82h27.9v13.87h-44.55V30.55h16.65v56.27Z"/>
    <path class="cls-2" d="M487.36,198.59h-8.79v-33.4h-32.53v33.4h-8.79v-70.14h8.79v29.03h32.53v-29.03h8.79v70.14Z"/>
    <path class="cls-2" d="M552.2,128.45l-23.63,70.14h-8.49l-23.63-70.14h9.2l19.55,57.86,19.36-57.86h7.64Z"/>
    <path class="cls-2" d="M604.78,198.59h-8.97l-7.05-20.5h-26.03l-6.28,20.5h-7.35l22.79-70.14h9.94l22.94,70.14ZM586.89,171.51l-10.87-33.71-10.85,33.71h21.72Z"/>
    <path class="cls-2" d="M653.33,175l8.02,1.8c-3.84,15.48-12.5,23.23-26,23.23-8.87,0-15.83-3.58-20.89-10.75-5.05-7.17-7.58-15.97-7.58-26.43s2.64-19.47,7.91-26.02c5.27-6.55,12.35-9.82,21.22-9.82,13.15,0,21.6,7.52,25.33,22.56l-8.27,1.64c-3.01-11.17-8.72-16.75-17.11-16.75-6.2,0-11,2.59-14.41,7.78s-5.11,12.48-5.11,21.86c0,8.6,1.75,15.49,5.24,20.68,3.49,5.19,8.12,7.79,13.87,7.79,8.94,0,14.87-5.86,17.78-17.57Z"/>
    <path class="cls-2" d="M756.1,191.19v7.4c-3.12.51-5.66.77-7.61.77-1.44,0-2.97-.25-4.6-.76-1.63-.51-4-2.36-7.12-5.56-5.55,4.66-11.81,6.99-18.8,6.99s-12.8-2.03-17.13-6.09c-4.33-4.06-6.5-8.97-6.5-14.72,0-4.59,1.53-8.83,4.58-12.72,3.06-3.89,7.57-6.81,13.55-8.76-4.48-6.51-6.72-11.85-6.73-16.03,0-3.97,1.42-7.42,4.27-10.33,2.85-2.91,6.64-4.37,11.37-4.37s8.74,1.35,11.81,4.06c3.07,2.71,4.61,6.36,4.61,10.95,0,7.47-4.92,13.54-14.76,18.2l14.78,22.46c4.78-6.08,7.94-13.58,9.48-22.48l7.5,1.59c-2.09,10.12-6.39,18.88-12.9,26.29,2.23,2.41,4.73,3.61,7.5,3.61,1.27,0,3.49-.17,6.68-.51ZM715.93,163.03c-4.87,2.09-8.22,4.33-10.06,6.75-1.83,2.41-2.75,5.43-2.75,9.05,0,4.96,1.58,8.62,4.76,10.98,3.17,2.36,6.86,3.54,11.08,3.54,5.35,0,9.96-1.85,13.83-5.54l-16.86-24.78ZM719.42,155.21c5.53-3.05,8.87-5.51,10-7.36,1.13-1.85,1.7-3.64,1.7-5.36,0-2.44-.87-4.54-2.62-6.31s-3.97-2.65-6.68-2.65c-2.47,0-4.5.78-6.11,2.34-1.61,1.56-2.42,3.32-2.42,5.27,0,3.02,2.04,7.71,6.12,14.07Z"/>
    <path class="cls-2" d="M845.45,198.59h-9.21l-12.93-30.37h-20.1v30.37h-8.22v-70.14h27.65c7.5,0,13.06,2.05,16.67,6.14,3.61,4.09,5.42,8.57,5.42,13.44,0,3.73-1.01,7.31-3.03,10.74-2.02,3.43-5.36,5.88-10.02,7.35l13.77,32.47ZM803.22,161.08h18.35c4.83,0,8.43-1.28,10.82-3.83,2.38-2.55,3.57-5.68,3.57-9.38s-1.26-6.58-3.78-8.63-5.7-3.08-9.53-3.08h-19.42v24.92Z"/>
    <path class="cls-2" d="M904.86,190.88v7.71h-45.37v-70.14h44.4v7.71h-35.61v22.3h28.26v7.14h-28.26v25.28h36.59Z"/>
    <path class="cls-2" d="M925.92,198.59h-8.79v-70.14h42.96v7.71h-34.17v22.15h28.31v7.09h-28.31v33.19Z"/>
    <path class="cls-2" d="M1021.03,198.59h-9.21l-12.93-30.37h-20.1v30.37h-8.22v-70.14h27.64c7.5,0,13.06,2.05,16.67,6.14,3.61,4.09,5.42,8.57,5.42,13.44,0,3.73-1.01,7.31-3.03,10.74-2.02,3.43-5.36,5.88-10.02,7.35l13.77,32.47ZM978.8,161.08h18.34c4.83,0,8.43-1.28,10.82-3.83,2.38-2.55,3.57-5.68,3.57-9.38s-1.26-6.58-3.78-8.63-5.7-3.08-9.53-3.08h-19.42v24.92Z"/>
    <path class="cls-2" d="M1043.85,198.59h-8.79v-70.14h8.79v70.14Z"/>
    <path class="cls-2" d="M1113.32,163.23v36.33h-5.37l-2.42-8.79c-4.32,6.17-10.75,9.25-19.28,9.25-9.25,0-16.45-3.48-21.59-10.44-5.14-6.96-7.71-15.41-7.71-25.35,0-10.63,2.72-19.49,8.17-26.58,5.45-7.1,12.85-10.64,22.2-10.64,12.92,0,21.34,6.78,25.28,20.35l-8.32,2c-1.2-5.21-3.44-8.99-6.73-11.36-3.29-2.36-6.89-3.54-10.79-3.54-6.92,0-12.02,2.79-15.31,8.38-3.29,5.59-4.93,12.6-4.93,21.03,0,9.09,1.84,16.19,5.52,21.32,3.68,5.12,8.69,7.69,15.03,7.69,4.93,0,9.05-1.64,12.36-4.92,3.31-3.28,4.96-7.8,4.96-13.57,0-1.06-.03-2.33-.1-3.81h-17.37v-7.35h26.41Z"/>
    <path class="cls-2" d="M1174.83,190.88v7.71h-45.37v-70.14h44.4v7.71h-35.61v22.3h28.26v7.14h-28.26v25.28h36.59Z"/>
    <path class="cls-2" d="M1237.57,198.59h-9.21l-12.93-30.37h-20.1v30.37h-8.22v-70.14h27.64c7.5,0,13.06,2.05,16.67,6.14,3.61,4.09,5.42,8.57,5.42,13.44,0,3.73-1.01,7.31-3.03,10.74-2.02,3.43-5.36,5.88-10.02,7.35l13.77,32.47ZM1195.33,161.08h18.34c4.83,0,8.43-1.28,10.82-3.83,2.38-2.55,3.57-5.68,3.57-9.38s-1.26-6.58-3.78-8.63-5.7-3.08-9.53-3.08h-19.42v24.92Z"/>
    <path class="cls-2" d="M1298.83,198.59h-8.97l-7.05-20.5h-26.03l-6.28,20.5h-7.35l22.79-70.14h9.94l22.94,70.14ZM1280.93,171.51l-10.87-33.71-10.85,33.71h21.71Z"/>
    <path class="cls-2" d="M1321.99,198.59h-8.79v-62.43h-20.09v-7.71h49.02v7.71h-20.14v62.43Z"/>
    <path class="cls-2" d="M1360.68,198.59h-8.79v-70.14h8.79v70.14Z"/>
    <path class="cls-2" d="M1402.41,200.03c-9.01,0-16.03-3.5-21.07-10.51-5.04-7.01-7.55-15.61-7.55-25.79s2.64-19.4,7.91-26.33c5.27-6.92,12.26-10.39,20.96-10.39s15.62,3.4,20.86,10.21,7.86,15.38,7.86,25.74-2.54,18.61-7.63,25.99c-5.09,7.39-12.2,11.08-21.35,11.08ZM1402.61,192.88c6.13,0,10.93-2.79,14.39-8.38,3.46-5.59,5.19-12.79,5.19-21.6s-1.79-16.1-5.37-21.14c-3.58-5.04-8.33-7.56-14.26-7.56s-10.76,2.73-14.28,8.18c-3.53,5.45-5.29,12.58-5.29,21.39s1.78,15.61,5.34,21.01,8.32,8.1,14.29,8.1Z"/>
    <path class="cls-2" d="M1496.24,198.59h-8.53l-36.28-61.15.1,4.62c.1,1.75.15,3.22.15,4.42v52.1h-7.09v-70.14h11l33.91,57.16-.1-4.88c-.07-1.92-.1-3.61-.1-5.08v-47.2h6.94v70.14Z"/>
  </g>
</svg>