<?xml version="1.0" encoding="UTF-8"?>
<svg id="Layer_1" data-name="Layer 1" xmlns="http://www.w3.org/2000/svg" viewBox="0 0 1681.56 356.28">
  <defs>
    <style>
      .cls-1 {
        fill: #fff;
      }
    </style>
  </defs>
  <g>
    <path class="cls-1" d="M774.44,111.64c-6.93-3.13-15.8-6.39-26.37-9.68-9.8-3.09-17-5.93-21.39-8.41-3.79-2.14-4.31-4.33-4.31-6.19,0-3.63,1.59-6.23,5.16-8.45,4.29-2.66,10.54-4.01,18.6-4.01,5.84,0,11.53.63,16.92,1.87,5.53,1.28,11.65,3.23,18.19,5.82l5.36,2.11,1.95-5.42,8.62-23.97,1.89-5.23-5.23-1.9-2.96-1.08c-6.53-2.23-13.25-4.15-20.05-5.71-7.04-1.62-15.62-2.44-25.5-2.44-11.83,0-22.44,1.96-31.55,5.84-9.36,3.99-16.68,9.61-21.75,16.7-5.15,7.22-7.77,15.56-7.77,24.79,0,10.42,2.77,19.16,8.23,25.98,5.2,6.49,11.59,11.52,19,14.92,6.79,3.12,15.53,6.38,25.97,9.68,10.38,3.12,17.87,5.98,22.34,8.54,3.05,1.75,4.31,3.92,4.2,7.23,0,2.55-.68,5.65-6.04,8.64-5.05,2.83-12.01,4.27-20.7,4.27-9.88,0-22.81-2.96-38.44-8.8l-3.93-1.57-5.32-2.12-1.99,5.37-8.89,23.97-1.8,4.85,4.69,2.17,3.5,1.62.17.08.17.07c9.5,3.66,17.97,6.4,25.19,8.16,7.41,1.81,15.65,2.72,24.48,2.72,15.1,0,27.8-2.3,37.73-6.84,10.2-4.66,17.77-10.8,22.48-18.27,4.68-7.43,7.06-15.55,7.06-24.13,0-10.44-2.87-19.24-8.53-26.16-5.37-6.57-11.89-11.61-19.39-15.01h0Z"/>
    <polygon class="cls-1" points="948.82 76.9 948.82 71.32 948.82 47.63 948.82 42.04 943.24 42.04 819.88 42.04 814.3 42.04 814.3 47.63 814.3 71.32 814.3 76.9 819.88 76.9 862.78 76.9 862.78 195.75 862.78 201.34 868.37 201.34 894.76 201.34 900.34 201.34 900.34 195.75 900.34 76.9 943.24 76.9 948.82 76.9"/>
    <path class="cls-1" d="M1030.58,45.65l-1.36-3.61h-33.32l-1.36,3.61-55.75,148.13-2.84,7.56h37.78l1.37-3.6,13.45-35.45h46.99l13.71,35.48,1.38,3.57h38.56l-2.84-7.56-55.75-148.13h-.02ZM1022.94,127.41h-22.12l11.06-32.53,11.06,32.53Z"/>
    <path class="cls-1" d="M1200.76,136.64c20.07-8.75,30.23-23.99,30.23-45.38,0-22.45-11.53-49.22-66.45-49.22h-54.07v159.3h37.56v-57.56c2.58.13,4.68.19,6.26.19,3.35,0,6.15-.03,8.48-.11l32.22,54.73,1.62,2.75h42.95l-5.07-8.46-33.75-56.24h.01ZM1193.16,91.79c0,9.03-4.21,11.82-7.88,13.24-6.95,2.69-17.01,4.06-29.9,4.06-2.37,0-4.83-.1-7.34-.28v-31.91h13.81c10.68,0,19.05,1.26,24.89,3.73,2.99,1.27,6.42,3.69,6.42,11.16Z"/>
    <polygon class="cls-1" points="1369.63 42.04 1364.05 42.04 1364.05 47.63 1364.05 138.72 1302.66 44.57 1301.01 42.04 1297.98 42.04 1266.48 42.04 1260.89 42.04 1260.89 47.63 1260.89 195.75 1260.89 201.34 1266.48 201.34 1292.87 201.34 1298.45 201.34 1298.45 195.75 1298.45 104.49 1359.56 198.79 1361.21 201.34 1364.24 201.34 1396.29 201.34 1401.88 201.34 1401.88 195.75 1401.88 47.63 1401.88 42.04 1396.29 42.04 1369.63 42.04"/>
    <polygon class="cls-1" points="1428.77 42.04 1423.18 42.04 1423.18 47.63 1423.18 195.75 1423.18 201.34 1428.77 201.34 1525.99 201.34 1531.58 201.34 1531.58 195.75 1531.58 171.78 1531.58 166.2 1525.99 166.2 1460.74 166.2 1460.74 138.04 1517.92 138.04 1523.5 138.04 1523.5 132.46 1523.5 108.5 1523.5 102.9 1517.92 102.9 1460.74 102.9 1460.74 76.9 1525.99 76.9 1531.58 76.9 1531.58 71.32 1531.58 47.63 1531.58 42.04 1525.99 42.04 1428.77 42.04"/>
    <path class="cls-1" d="M1645.41,113.37c-6.93-3.13-15.8-6.39-26.37-9.68-9.8-3.09-17-5.93-21.39-8.41-3.79-2.14-4.31-4.33-4.31-6.19,0-3.63,1.59-6.23,5.16-8.45,4.29-2.66,10.54-4.01,18.6-4.01,5.84,0,11.53.63,16.92,1.87,5.53,1.28,11.65,3.23,18.19,5.82l5.36,2.11,1.95-5.42,8.62-23.97,1.89-5.23-5.23-1.9-2.96-1.08c-6.53-2.23-13.25-4.15-20.05-5.71-7.04-1.62-15.62-2.44-25.5-2.44-11.83,0-22.44,1.96-31.55,5.84-9.36,3.99-16.68,9.61-21.75,16.7-5.15,7.22-7.77,15.56-7.77,24.79,0,10.42,2.77,19.16,8.23,25.98,5.2,6.49,11.59,11.52,19,14.92,6.79,3.12,15.53,6.38,25.97,9.68,10.38,3.12,17.87,5.98,22.34,8.54,3.05,1.75,4.31,3.92,4.2,7.23,0,2.55-.68,5.65-6.04,8.64-5.05,2.83-12.01,4.27-20.7,4.27-9.88,0-22.81-2.96-38.44-8.8l-3.93-1.57-5.32-2.12-1.99,5.37-8.89,23.97-1.8,4.85,4.69,2.17,3.5,1.62.17.08.17.07c9.5,3.66,17.97,6.4,25.19,8.16,7.41,1.81,15.65,2.72,24.48,2.72,15.1,0,27.8-2.3,37.73-6.84,10.2-4.66,17.77-10.8,22.48-18.27,4.68-7.43,7.06-15.55,7.06-24.13,0-10.44-2.87-19.24-8.53-26.16-5.37-6.57-11.89-11.61-19.39-15.01h0Z"/>
    <g>
      <path class="cls-1" d="M566.18,161.15c-15.67-10.31-34.5-18.65-55.96-24.8-20.91-5.98-42.29-10.4-63.51-13.13-20.65-2.66-37.08-4.53-48.46-5.52-38.74-4.28-70.1-7.8-94.08-10.57-23.48-2.71-41.99-5.44-55.03-8.1-15.81-3.22-20.95-6-22.44-7.05-2.26-1.59-3.51-3.7-3.83-6.39,3.86,51.09,212.56,53.98,214.31,123.95.03.3.04.6.04.88,0,4.59-2.57,8.12-8.07,11.13-6.96,3.78-15.9,6.83-26.6,9.04-11.33,2.35-23.69,3.96-36.75,4.8-32.98,2.1-61.07,1.6-88.14-1.44-15.72-1.77-29.47-4.48-40.88-8.08-10.82-3.4-19.55-7.84-25.94-13.21h0c-3.67-3.07-6.04-6.61-7.44-10.55h46.14l-124.78-39.24L0,202.1h47.93c1.61,14.98,9.25,28.32,22.89,39.73,15.45,12.93,36.49,23.68,62.52,31.95,25.42,8.08,55.03,14.07,88.02,17.82,32.6,3.71,66.69,5.59,101.28,5.59,42.77,0,81.04-2.21,113.76-6.57,33.04-4.4,61.23-10.69,83.8-18.69,23.19-8.2,41.01-18.22,52.98-29.75,12.25-11.8,18.45-24.77,18.45-38.57,0-17.08-8.55-31.36-25.42-42.46h-.04Z"/>
      <path class="cls-1" d="M222.87,85.59c-.05-.46-.09-.93-.09-1.44,0-3.83,1.7-6.73,5.36-9.13,4.72-3.09,10.99-5.74,18.61-7.89,8.03-2.25,17.13-3.85,27.08-4.77,26.75-2.46,53.92-1.6,76.35.38,13.16,1.18,24.91,3.17,34.92,5.92,9.24,2.55,16.69,6.03,22.14,10.36.86.69,1.57,1.44,2.31,2.19h-40.75l124.78,36.84,124.78-36.84h-49.44c-2.99-11.8-9.87-22.38-21.06-31.41-14.62-11.79-34.51-21.56-59.09-29.06-23.97-7.3-51.68-12.65-82.35-15.9-56.34-5.96-119.18-7-180.36.21-28.62,3.37-54.68,8.66-77.44,15.71-23.3,7.21-42.5,16.4-57.03,27.33-15.38,11.54-23.18,25.33-23.18,40.97,0,14.04,6.24,26.23,18.55,36.22,11.64,9.46,27.03,17.43,45.74,23.67,18.02,6.03,38.66,10.99,61.36,14.76,22.24,3.7,45.32,6.85,68.37,9.36,22.27,2.74,44.87,5.29,67.15,7.59,21.5,2.22,40.96,4.84,57.87,7.79,16.12,2.81,29.2,6.31,38.89,10.41,8.86,3.75,10.62,7.74,10.86,10.67-1.75-69.97-210.45-72.86-214.31-123.95v.02Z"/>
    </g>
    <path class="cls-1" d="M1104.54,318.98v9.3h20.7v10.62h-20.7v16h-13.8v-46.51h36.1v10.62h-22.29v-.02Z"/>
    <path class="cls-1" d="M1129.98,355.14v-35.07h10.4v35.07h-10.4Z"/>
    <path class="cls-1" d="M1162.68,345.64h-5.51v9.46h-10.4v-35.07h16.36c9.41,0,14.81,4.51,14.81,12.46,0,5.21-2.09,9.01-5.91,11.16l7.1,11.46h-11.81l-4.66-9.46h.02ZM1163.13,337.64c3.1,0,4.91-1.71,4.91-4.86s-1.81-4.76-4.91-4.76h-5.96v9.61h5.96Z"/>
    <path class="cls-1" d="M1210.77,324.27l-3.85,8.01c-3.6-2.06-8.71-3.9-11.66-3.9-1.76,0-2.9.6-2.9,1.91,0,5.16,18.32,2.09,18.32,14.76,0,7.45-6.6,11-14.46,11-5.96,0-12.46-2.09-16.87-5.56l3.9-7.91c3.6,3.05,9.46,5.36,13.07,5.36,2.19,0,3.6-.75,3.6-2.35,0-5.31-18.32-1.96-18.32-14.32,0-6.75,5.76-11.06,14.51-11.06,5.36,0,10.85,1.61,14.66,4.05h0Z"/>
    <path class="cls-1" d="M1232.68,328.79v26.77h-10.45v-26.77h-10.17v-8.31h30.82v8.31h-10.22.02Z"/>
    <path class="cls-1" d="M1290.85,316.83l-7.99,9.46c-2.93-3.74-7.27-6.2-11.12-6.2-6.33,0-11.12,5.13-11.12,11.99s4.79,12.06,11.12,12.06c3.6,0,7.92-2.13,11.12-5.39l7.99,8.53c-5.06,5.46-12.73,8.99-19.78,8.99-14.19,0-24.66-10.27-24.66-24.05s10.65-23.65,25.13-23.65c7.07,0,14.59,3.2,19.33,8.26h-.02Z"/>
    <path class="cls-1" d="M1302.48,349.82l-2.09,5.61h-10.7l14.96-35.07h10.7l14.46,35.07h-11.11l-2.06-5.61h-14.17.02ZM1309.68,330.75l-4.3,11.46h8.51l-4.2-11.46Z"/>
    <path class="cls-1" d="M1357.05,346.35v8.71h-25.13v-35.07h10.4v26.38h14.71l.02-.02Z"/>
    <path class="cls-1" d="M1384.77,346.4v8.71h-25.13v-35.07h10.4v26.38h14.71l.02-.02Z"/>
    <path class="cls-1" d="M1069.38,345.78h-17.35l-3.2,9.2h-5.48l14.39-41.09h6l14.32,41.09h-5.48l-3.2-9.2h0ZM1067.89,341.39l-7.19-20.87-7.19,20.87h14.39-.02Z"/>
    <path class="cls-1" d="M1392.79,323.63c1.74-3.22,4.14-5.75,7.17-7.55,3.03-1.83,6.38-2.73,10.07-2.73,4.34,0,8.12,1.09,11.36,3.27s5.59,5.26,7.09,9.25h-6.21c-1.11-2.5-2.7-4.41-4.77-5.75-2.08-1.34-4.56-2.01-7.45-2.01s-5.28.67-7.47,2.01c-2.21,1.34-3.94,3.25-5.19,5.73-1.26,2.48-1.88,5.36-1.88,8.69s.62,6.16,1.88,8.63c1.26,2.48,2.98,4.37,5.19,5.73,2.21,1.34,4.71,2.01,7.47,2.01s5.38-.67,7.45-1.99c2.08-1.32,3.67-3.23,4.77-5.73h6.21c-1.49,3.95-3.84,7-7.09,9.16-3.23,2.16-7.02,3.23-11.36,3.23-3.68,0-7.05-.9-10.07-2.7-3.03-1.79-5.41-4.3-7.17-7.5-1.76-3.2-2.63-6.82-2.63-10.85s.87-7.65,2.63-10.89h0Z"/>
    <path class="cls-1" d="M1444.12,352.93c-3.05-1.79-5.44-4.3-7.22-7.54-1.78-3.22-2.65-6.85-2.65-10.89s.89-7.65,2.65-10.89c1.78-3.22,4.17-5.73,7.22-7.54,3.05-1.79,6.42-2.7,10.1-2.7s7.12.9,10.17,2.7c3.05,1.79,5.44,4.3,7.19,7.5s2.63,6.83,2.63,10.9-.87,7.7-2.63,10.9c-1.76,3.2-4.15,5.71-7.19,7.5-3.05,1.79-6.43,2.7-10.17,2.7s-7.07-.9-10.1-2.7v.03ZM1461.72,348.93c2.23-1.34,3.97-3.27,5.26-5.75,1.27-2.5,1.91-5.38,1.91-8.66s-.64-6.21-1.91-8.69c-1.27-2.46-3.02-4.37-5.23-5.73-2.21-1.34-4.72-2.01-7.54-2.01s-5.33.67-7.54,2.01-3.95,3.25-5.23,5.73c-1.27,2.48-1.91,5.36-1.91,8.69s.64,6.16,1.91,8.66c1.27,2.5,3.03,4.41,5.26,5.75,2.23,1.34,4.72,2.01,7.5,2.01s5.28-.67,7.5-2.01Z"/>
    <path class="cls-1" d="M1521.4,314.19v41.04h-5.19v-30.6l-13.13,30.6h-3.65l-13.18-30.65v30.65h-5.19v-41.04h5.59l14.61,33.92,14.61-33.92h5.54Z"/>
    <path class="cls-1" d="M1553.39,334.56c-2.26,2.28-5.71,3.42-10.37,3.42h-7.65v17.25h-5.19v-41.34h12.85c4.49,0,7.91,1.12,10.25,3.38,2.35,2.26,3.52,5.16,3.52,8.71s-1.14,6.3-3.4,8.58h0ZM1549.42,331.56c1.37-1.31,2.06-3.17,2.06-5.58,0-5.09-2.81-7.65-8.44-7.65h-7.65v15.18h7.65c2.9,0,5.03-.65,6.4-1.96l-.02.02Z"/>
    <path class="cls-1" d="M1586.76,346.03h-17.35l-3.2,9.2h-5.48l14.39-41.09h6l14.32,41.09h-5.48l-3.2-9.2h0ZM1585.28,341.64l-7.19-20.87-7.19,20.87h14.39-.02Z"/>
    <path class="cls-1" d="M1633.01,355.23h-5.19l-20.89-32.91v32.91h-5.19v-41.39h5.19l20.89,32.85v-32.85h5.19v41.39Z"/>
    <path class="cls-1" d="M1669.71,313.89l-12.96,25.73v15.59h-5.19v-15.59l-13.01-25.73h5.76l9.82,20.94,9.82-20.94h5.78Z"/>
  </g>
  <g>
    <path class="cls-1" d="M723.29,227.68v56.31h-14.35v-23.22h-19.46v23.22h-14.35v-56.31h14.35v21.95h19.46v-21.95h14.35Z"/>
    <path class="cls-1" d="M782.18,227.68l-18.84,56.31h-15.7l-18.73-56.31h15.55l12.48,40.26,12.99-40.26h12.25Z"/>
    <path class="cls-1" d="M815.56,227.68l19.52,56.31h-15.7l-3.84-11.59h-20.16l-3.91,11.59h-12.81l19.99-56.31h16.91ZM798.88,262h13.21l-6.55-19.76-6.67,19.76Z"/>
    <path class="cls-1" d="M890.04,248.64l-15.31.87c-.21-7.95-3.65-11.92-10.3-11.92-7.63,0-11.45,6.12-11.45,18.36,0,7.07,1.04,11.86,3.11,14.38,2.07,2.52,4.97,3.77,8.7,3.77,6.04,0,9.73-3.55,11.08-10.64l14.16.78c-.91,6.74-3.69,11.86-8.34,15.37-4.65,3.51-10.33,5.26-17.06,5.26-8.25,0-14.96-2.57-20.12-7.71-5.16-5.14-7.74-12.25-7.74-21.33,0-8.5,2.5-15.46,7.49-20.87,5-5.42,11.82-8.13,20.47-8.13,14.99,0,23.42,7.27,25.31,21.82Z"/>
    <path class="cls-1" d="M981.19,253.26c-1.43,6.3-4.83,12.26-10.19,17.9,1.89,1.76,4.02,2.64,6.4,2.64.85,0,2.12-.08,3.79-.25v10.02c-2.25.52-4.34.78-6.26.78-5.57,0-10.06-1.8-13.47-5.41-5.7,4.1-12.2,6.15-19.51,6.15-7.98,0-13.93-1.8-17.84-5.4-3.92-3.6-5.87-7.71-5.87-12.33,0-7.48,5.15-12.91,15.45-16.29-2.41-2.75-3.97-4.88-4.69-6.41-.72-1.53-1.07-3.16-1.07-4.89,0-3.96,1.75-7.16,5.25-9.59,3.5-2.43,8.16-3.65,13.98-3.65s10.44,1.33,13.68,3.98c3.24,2.65,4.87,5.99,4.87,10,0,6.19-3.91,10.74-11.74,13.65l8.78,8.61c2.52-2.47,4.36-6.18,5.51-11.13l12.93,1.61ZM941.12,258.53c-4.88,1.51-7.31,4.14-7.31,7.88,0,2.2.88,4.13,2.64,5.8,1.76,1.66,4.12,2.5,7.08,2.5,3.79,0,7.26-1.14,10.4-3.43l-12.8-12.74ZM947.69,247.24c4.45-1.49,6.68-3.66,6.68-6.52,0-1.54-.6-2.86-1.8-3.96s-2.87-1.65-5-1.65c-1.71,0-3.11.4-4.23,1.2-1.11.8-1.67,1.83-1.67,3.09,0,1.54,1.14,3.36,3.42,5.45l2.6,2.39Z"/>
    <path class="cls-1" d="M1027.1,261.67v22.32h-14.71v-56.31h27.41c5.06,0,9.11.53,12.18,1.59,3.06,1.06,5.6,3,7.61,5.83,2.01,2.83,3.02,5.98,3.02,9.44,0,6.76-3.61,11.61-10.83,14.55l11.51,24.89h-16.14l-9.58-22.32h-10.47ZM1027.1,237.71v14.35h8.96c2.92,0,5.05-.19,6.37-.56,1.33-.37,2.5-1.2,3.54-2.48,1.04-1.28,1.55-2.74,1.55-4.39s-.52-2.97-1.55-4.21c-1.04-1.24-2.16-2-3.38-2.29-1.22-.29-3.5-.43-6.85-.43h-8.63Z"/>
    <path class="cls-1" d="M1118.43,238.41h-29.7v11.55h23.35v10.6h-23.35v12.29h29.7v11.14h-44.54v-56.31h44.54v10.73Z"/>
    <path class="cls-1" d="M1171.56,238.82h-29.19v12.62h23.07v10.52h-23.07v22.03h-15.17v-56.31h44.36v11.14Z"/>
    <path class="cls-1" d="M1193.77,261.67v22.32h-14.71v-56.31h27.41c5.06,0,9.11.53,12.18,1.59,3.06,1.06,5.6,3,7.61,5.83,2.01,2.83,3.02,5.98,3.02,9.44,0,6.76-3.61,11.61-10.83,14.55l11.51,24.89h-16.14l-9.58-22.32h-10.47ZM1193.77,237.71v14.35h8.96c2.92,0,5.05-.19,6.37-.56,1.33-.37,2.5-1.2,3.54-2.48,1.04-1.28,1.55-2.74,1.55-4.39s-.52-2.97-1.55-4.21c-1.04-1.24-2.16-2-3.38-2.29-1.22-.29-3.5-.43-6.85-.43h-8.63Z"/>
    <path class="cls-1" d="M1255.13,227.68v56.31h-14.57v-56.31h14.57Z"/>
    <path class="cls-1" d="M1316.21,253.88v30.11h-6.67c-.48-2.12-1.17-4.28-2.08-6.48-4.45,4.9-10.12,7.34-17,7.34-8.14,0-14.47-2.63-18.99-7.88-4.53-5.25-6.79-12.04-6.79-20.38,0-8.96,2.41-16.17,7.24-21.61,4.83-5.45,11.38-8.17,19.67-8.17,6.94,0,12.55,1.76,16.81,5.28,4.26,3.52,6.87,8.21,7.81,14.07l-13.89,1.65c-1.13-6.82-4.71-10.23-10.74-10.23-3.96,0-6.95,1.62-8.98,4.85-2.03,3.23-3.04,7.84-3.04,13.84s1.1,10.19,3.29,13.24,5.31,4.58,9.37,4.58c2.62,0,4.96-.77,7.01-2.31,2.06-1.54,3.08-4,3.08-7.38h-11.74v-10.52h25.63Z"/>
    <path class="cls-1" d="M1372.27,238.41h-29.7v11.55h23.35v10.6h-23.35v12.29h29.7v11.14h-44.54v-56.31h44.54v10.73Z"/>
    <path class="cls-1" d="M1395.75,261.67v22.32h-14.71v-56.31h27.41c5.06,0,9.11.53,12.18,1.59,3.06,1.06,5.6,3,7.61,5.83,2.01,2.83,3.02,5.98,3.02,9.44,0,6.76-3.61,11.61-10.83,14.55l11.51,24.89h-16.14l-9.58-22.32h-10.47ZM1395.75,237.71v14.35h8.96c2.92,0,5.05-.19,6.37-.56,1.33-.37,2.5-1.2,3.54-2.48,1.04-1.28,1.55-2.74,1.55-4.39s-.52-2.97-1.55-4.21c-1.04-1.24-2.16-2-3.38-2.29-1.22-.29-3.5-.43-6.85-.43h-8.63Z"/>
    <path class="cls-1" d="M1473.18,227.68l19.52,56.31h-15.7l-3.84-11.59h-20.16l-3.91,11.59h-12.81l19.99-56.31h16.91ZM1456.49,262h13.21l-6.55-19.76-6.67,19.76Z"/>
    <path class="cls-1" d="M1534.18,227.68v11.14h-15.44v45.17h-14.8v-45.17h-15.53v-11.14h45.78Z"/>
    <path class="cls-1" d="M1555.01,227.68v56.31h-14.57v-56.31h14.57Z"/>
    <path class="cls-1" d="M1590.95,284.85c-8.4,0-14.9-2.85-19.49-8.54-4.59-5.69-6.89-12.58-6.89-20.67s2.33-15.08,6.98-20.58c4.66-5.5,11.29-8.25,19.9-8.25s15.27,2.94,19.7,8.81c4.43,5.87,6.64,12.59,6.64,20.15,0,8.17-2.28,15.06-6.85,20.67-4.57,5.61-11.23,8.42-19.99,8.42ZM1591.36,237.58c-7.66,0-11.49,6.08-11.49,18.23s3.83,18.27,11.49,18.27,11.12-6.08,11.12-18.23-3.71-18.27-11.12-18.27Z"/>
    <path class="cls-1" d="M1675.31,227.68v56.31h-12.46l-24.41-38.03c.03.96.06,1.6.09,1.9.12.96.18,1.77.18,2.43v33.7h-11.38v-56.31h15.75l21.21,33.21c-.18-1.65-.27-2.9-.27-3.75v-29.45h11.29Z"/>
  </g>
</svg>