<?xml version="1.0" encoding="UTF-8"?>
<svg xmlns="http://www.w3.org/2000/svg" viewBox="0 0 64 64" role="img" aria-label="FirstCall">
  <rect width="64" height="64" rx="12" fill="#ffffff"/>
  <g transform="translate(32,32) scale(0.96) translate(-32.65,-32.5)">
    <path fill="#1a4120" d="M60.7,26.9c-.8-.5-1.8-.9-2.9-.9-4.5,0-11.8,6.9-23.7,22.2-5.2,6.4-9.5,9.7-12.8,11.4h27l15.6-27.1-3.3-5.7Z"/>
    <path fill="#00558c" d="M30.9,45.7c8.9-11.5,15.1-18,19.9-21.2,2.6-1.7,4.8-2.5,7-2.5s0,0,0,0l-2-3.4h0c-.9-.6-1.9-1.1-3.2-1.1-4.5,0-11.8,6.9-23.7,22.2-7.2,8.7-12.5,11.7-16,12.8l2.9,5c2.9-.7,7.8-2.8,15.1-11.8Z"/>
    <path fill="#00558c" d="M24,31c-7.2,8.8-12.5,11.7-16.1,12.8l2.9,5c2.9-.7,7.8-3,14.9-11.7,8.9-11.5,15.1-18,19.9-21.2,2.6-1.7,4.8-2.5,7-2.5s.2,0,.3,0l-2-3.5c-.9-.5-1.9-1-3.2-1-4.5,0-11.8,6.9-23.7,22.2Z"/>
    <path fill="#1a4120" d="M20.8,28.4c8.9-11.5,15.1-18,19.9-21.2,1.2-.8,2.2-1.3,3.3-1.8h-26.9L1.4,32.5l4.4,7.6c2.9-.7,7.8-2.9,15-11.7Z"/>
  </g>
</svg>
